<svg width="382" height="34" viewBox="0 0 382 34" fill="none" xmlns="http://www.w3.org/2000/svg">
<path d="M4 0.5H378C379.933 0.5 381.5 2.067 381.5 4V30C381.5 31.933 379.933 33.5 378 33.5H4C2.06701 33.5 0.5 31.933 0.5 30V4C0.5 2.067 2.067 0.5 4 0.5Z" fill="#E6F5ED"/>
<path d="M4 0.5H378C379.933 0.5 381.5 2.067 381.5 4V30C381.5 31.933 379.933 33.5 378 33.5H4C2.06701 33.5 0.5 31.933 0.5 30V4C0.5 2.067 2.067 0.5 4 0.5Z" stroke="#8BCFAD"/>
<path d="M17 11.0625C14.9492 11.0625 13.0898 12.1562 12.0508 13.9062C11.0391 15.6836 11.0391 17.8438 12.0508 19.5938C13.0898 21.3711 14.9492 22.4375 17 22.4375C19.0234 22.4375 20.8828 21.3711 21.9219 19.5938C22.9336 17.8438 22.9336 15.6836 21.9219 13.9062C20.8828 12.1562 19.0234 11.0625 17 11.0625ZM17 23.75C14.4844 23.75 12.1875 22.4375 10.9297 20.25C9.67188 18.0898 9.67188 15.4375 10.9297 13.25C12.1875 11.0898 14.4844 9.75 17 9.75C19.4883 9.75 21.7852 11.0898 23.043 13.25C24.3008 15.4375 24.3008 18.0898 23.043 20.25C21.7852 22.4375 19.4883 23.75 17 23.75ZM20.0898 15.4648L16.5898 18.9648C16.3164 19.2383 15.9062 19.2383 15.6602 18.9648L13.9102 17.2148C13.6367 16.9688 13.6367 16.5586 13.9102 16.3125C14.1562 16.0391 14.5664 16.0391 14.8398 16.3125L16.125 17.5977L19.1602 14.5625C19.4062 14.2891 19.8164 14.2891 20.0898 14.5625C20.3359 14.8086 20.3359 15.2188 20.0898 15.4648Z" fill="#03964D"/>
<path d="M36.424 12.6V21H34.984V12.6H36.424ZM39.6662 21H38.2742V15.12H39.6662V15.9C39.8502 15.62 40.0902 15.396 40.3862 15.228C40.6902 15.06 41.0502 14.976 41.4662 14.976C42.1862 14.976 42.7462 15.2 43.1462 15.648C43.5462 16.088 43.7462 16.692 43.7462 17.46V21H42.3542V17.724C42.3542 17.268 42.2422 16.912 42.0182 16.656C41.7942 16.392 41.4702 16.26 41.0462 16.26C40.6302 16.26 40.2942 16.408 40.0382 16.704C39.7902 17 39.6662 17.4 39.6662 17.904V21ZM45.2192 17.196H48.9392V18.444H45.2192V17.196ZM50.1731 16.8C50.1731 16.192 50.2851 15.624 50.5091 15.096C50.7331 14.56 51.0371 14.096 51.4211 13.704C51.8131 13.312 52.2731 13.004 52.8011 12.78C53.3291 12.556 53.8971 12.444 54.5051 12.444C54.9131 12.444 55.3051 12.504 55.6811 12.624C56.0651 12.736 56.4371 12.904 56.7971 13.128V14.676C56.4291 14.396 56.0611 14.188 55.6931 14.052C55.3251 13.916 54.9331 13.848 54.5171 13.848C54.1091 13.848 53.7291 13.924 53.3771 14.076C53.0331 14.228 52.7331 14.436 52.4771 14.7C52.2211 14.964 52.0211 15.276 51.8771 15.636C51.7331 15.996 51.6611 16.384 51.6611 16.8C51.6611 17.208 51.7331 17.592 51.8771 17.952C52.0211 18.304 52.2211 18.616 52.4771 18.888C52.7331 19.152 53.0331 19.36 53.3771 19.512C53.7291 19.664 54.1091 19.74 54.5171 19.74C54.9251 19.74 55.3171 19.672 55.6931 19.536C56.0691 19.4 56.4451 19.2 56.8211 18.936V20.484C56.4371 20.716 56.0491 20.884 55.6571 20.988C55.2651 21.092 54.8771 21.144 54.4931 21.144C53.8851 21.144 53.3171 21.036 52.7891 20.82C52.2691 20.596 51.8131 20.288 51.4211 19.896C51.0371 19.504 50.7331 19.044 50.5091 18.516C50.2851 17.988 50.1731 17.416 50.1731 16.8ZM60.944 14.976C61.392 14.976 61.808 15.056 62.192 15.216C62.576 15.376 62.908 15.596 63.188 15.876C63.468 16.148 63.684 16.472 63.836 16.848C63.996 17.224 64.076 17.628 64.076 18.06C64.076 18.492 63.996 18.896 63.836 19.272C63.684 19.648 63.468 19.976 63.188 20.256C62.908 20.528 62.576 20.744 62.192 20.904C61.808 21.064 61.392 21.144 60.944 21.144C60.496 21.144 60.08 21.064 59.696 20.904C59.312 20.744 58.98 20.528 58.7 20.256C58.42 19.976 58.2 19.648 58.04 19.272C57.888 18.896 57.812 18.492 57.812 18.06C57.812 17.628 57.888 17.224 58.04 16.848C58.2 16.472 58.42 16.148 58.7 15.876C58.98 15.596 59.312 15.376 59.696 15.216C60.08 15.056 60.496 14.976 60.944 14.976ZM60.944 16.248C60.696 16.248 60.464 16.296 60.248 16.392C60.04 16.488 59.856 16.616 59.696 16.776C59.544 16.936 59.42 17.128 59.324 17.352C59.236 17.576 59.192 17.812 59.192 18.06C59.192 18.316 59.236 18.556 59.324 18.78C59.42 18.996 59.544 19.184 59.696 19.344C59.856 19.504 60.04 19.632 60.248 19.728C60.464 19.824 60.696 19.872 60.944 19.872C61.192 19.872 61.42 19.824 61.628 19.728C61.844 19.632 62.028 19.504 62.18 19.344C62.34 19.184 62.464 18.996 62.552 18.78C62.648 18.556 62.696 18.316 62.696 18.06C62.696 17.812 62.648 17.576 62.552 17.352C62.464 17.128 62.34 16.936 62.18 16.776C62.028 16.616 61.844 16.488 61.628 16.392C61.42 16.296 61.192 16.248 60.944 16.248ZM66.8068 21H65.4148V15.12H66.8068V15.9C66.9908 15.62 67.2308 15.396 67.5268 15.228C67.8308 15.06 68.1908 14.976 68.6068 14.976C69.3268 14.976 69.8868 15.2 70.2868 15.648C70.6868 16.088 70.8868 16.692 70.8868 17.46V21H69.4948V17.724C69.4948 17.268 69.3828 16.912 69.1588 16.656C68.9348 16.392 68.6108 16.26 68.1868 16.26C67.7708 16.26 67.4348 16.408 67.1788 16.704C66.9308 17 66.8068 17.4 66.8068 17.904V21ZM74.1718 13.38V15.12H75.7318V16.296H74.1718V18.936C74.1718 19.264 74.2438 19.504 74.3878 19.656C74.5398 19.8 74.7718 19.872 75.0838 19.872C75.1958 19.872 75.3078 19.86 75.4198 19.836C75.5398 19.804 75.6438 19.756 75.7318 19.692V20.928C75.6198 20.992 75.4758 21.044 75.2998 21.084C75.1238 21.124 74.9158 21.144 74.6758 21.144C74.0838 21.144 73.6198 20.972 73.2838 20.628C72.9558 20.284 72.7918 19.804 72.7918 19.188V16.296H71.9158V15.12H72.7918V13.38H74.1718ZM82.2858 19.62C82.0378 20.084 81.6898 20.456 81.2418 20.736C80.7938 21.008 80.2578 21.144 79.6338 21.144C79.1858 21.144 78.7738 21.068 78.3978 20.916C78.0218 20.764 77.6978 20.552 77.4258 20.28C77.1618 20.008 76.9538 19.684 76.8018 19.308C76.6498 18.932 76.5738 18.516 76.5738 18.06C76.5738 17.62 76.6498 17.212 76.8018 16.836C76.9538 16.46 77.1618 16.136 77.4258 15.864C77.6978 15.584 78.0138 15.368 78.3738 15.216C78.7418 15.056 79.1378 14.976 79.5618 14.976C79.9938 14.976 80.3858 15.056 80.7378 15.216C81.0978 15.368 81.4058 15.584 81.6618 15.864C81.9258 16.136 82.1298 16.46 82.2738 16.836C82.4178 17.212 82.4898 17.62 82.4898 18.06C82.4898 18.172 82.4858 18.312 82.4778 18.48H77.9538C77.9698 18.696 78.0258 18.896 78.1218 19.08C78.2178 19.256 78.3418 19.412 78.4938 19.548C78.6458 19.676 78.8218 19.78 79.0218 19.86C79.2218 19.932 79.4298 19.968 79.6458 19.968C80.0298 19.968 80.3338 19.884 80.5578 19.716C80.7818 19.548 80.9778 19.336 81.1458 19.08L82.2858 19.62ZM81.1098 17.472C81.0858 17.28 81.0298 17.1 80.9418 16.932C80.8538 16.764 80.7418 16.62 80.6058 16.5C80.4698 16.38 80.3098 16.288 80.1258 16.224C79.9418 16.152 79.7458 16.116 79.5378 16.116C79.3298 16.116 79.1338 16.156 78.9498 16.236C78.7738 16.316 78.6138 16.42 78.4698 16.548C78.3338 16.668 78.2218 16.812 78.1338 16.98C78.0458 17.14 77.9898 17.304 77.9658 17.472H81.1098ZM86.0581 18.984L84.6301 21H83.0821L85.2661 18.012L83.1781 15.12H84.7741L86.0941 17.004L87.4261 15.12H88.9981L86.8981 17.976L89.0821 21H87.4741L86.0581 18.984ZM91.7499 13.38V15.12H93.3099V16.296H91.7499V18.936C91.7499 19.264 91.8219 19.504 91.9659 19.656C92.1179 19.8 92.3499 19.872 92.6619 19.872C92.7739 19.872 92.8859 19.86 92.9979 19.836C93.1179 19.804 93.2219 19.756 93.3099 19.692V20.928C93.1979 20.992 93.0539 21.044 92.8779 21.084C92.7019 21.124 92.4939 21.144 92.2539 21.144C91.6619 21.144 91.1979 20.972 90.8619 20.628C90.5339 20.284 90.3699 19.804 90.3699 19.188V16.296H89.4939V15.12H90.3699V13.38H91.7499ZM101.307 12.6L104.727 21H103.215L102.363 18.876H98.979L98.139 21H96.663L100.083 12.6H101.307ZM99.447 17.616H101.907L100.671 14.496L99.447 17.616ZM107.108 12.6V21H105.716V12.6H107.108ZM114.161 19.62C113.913 20.084 113.565 20.456 113.117 20.736C112.669 21.008 112.133 21.144 111.509 21.144C111.061 21.144 110.649 21.068 110.273 20.916C109.897 20.764 109.573 20.552 109.301 20.28C109.037 20.008 108.829 19.684 108.677 19.308C108.525 18.932 108.449 18.516 108.449 18.06C108.449 17.62 108.525 17.212 108.677 16.836C108.829 16.46 109.037 16.136 109.301 15.864C109.573 15.584 109.889 15.368 110.249 15.216C110.617 15.056 111.013 14.976 111.437 14.976C111.869 14.976 112.261 15.056 112.613 15.216C112.973 15.368 113.281 15.584 113.537 15.864C113.801 16.136 114.005 16.46 114.149 16.836C114.293 17.212 114.365 17.62 114.365 18.06C114.365 18.172 114.361 18.312 114.353 18.48H109.829C109.845 18.696 109.901 18.896 109.997 19.08C110.093 19.256 110.217 19.412 110.369 19.548C110.521 19.676 110.697 19.78 110.897 19.86C111.097 19.932 111.305 19.968 111.521 19.968C111.905 19.968 112.209 19.884 112.433 19.716C112.657 19.548 112.853 19.336 113.021 19.08L114.161 19.62ZM112.985 17.472C112.961 17.28 112.905 17.1 112.817 16.932C112.729 16.764 112.617 16.62 112.481 16.5C112.345 16.38 112.185 16.288 112.001 16.224C111.817 16.152 111.621 16.116 111.413 16.116C111.205 16.116 111.009 16.156 110.825 16.236C110.649 16.316 110.489 16.42 110.345 16.548C110.209 16.668 110.097 16.812 110.009 16.98C109.921 17.14 109.865 17.304 109.841 17.472H112.985ZM119.037 16.452C118.973 16.42 118.853 16.404 118.677 16.404C118.165 16.404 117.761 16.588 117.465 16.956C117.177 17.316 117.033 17.8 117.033 18.408V21H115.653V15.12H117.021V16.128C117.165 15.784 117.397 15.512 117.717 15.312C118.037 15.104 118.389 15 118.773 15C118.925 15 119.013 15.012 119.037 15.036V16.452ZM121.82 13.38V15.12H123.38V16.296H121.82V18.936C121.82 19.264 121.892 19.504 122.036 19.656C122.188 19.8 122.42 19.872 122.732 19.872C122.844 19.872 122.956 19.86 123.068 19.836C123.188 19.804 123.292 19.756 123.38 19.692V20.928C123.268 20.992 123.124 21.044 122.948 21.084C122.772 21.124 122.564 21.144 122.324 21.144C121.732 21.144 121.268 20.972 120.932 20.628C120.604 20.284 120.44 19.804 120.44 19.188V16.296H119.564V15.12H120.44V13.38H121.82ZM126.841 12.6H132.949V13.932H130.621V21H129.169V13.932H126.841V12.6ZM134.04 21V15.12H135.432V21H134.04ZM135.588 13.404C135.588 13.636 135.504 13.836 135.336 14.004C135.176 14.172 134.972 14.256 134.724 14.256C134.492 14.256 134.292 14.172 134.124 14.004C133.956 13.836 133.872 13.636 133.872 13.404C133.872 13.164 133.956 12.96 134.124 12.792C134.292 12.624 134.492 12.54 134.724 12.54C134.972 12.54 135.176 12.628 135.336 12.804C135.504 12.972 135.588 13.172 135.588 13.404ZM138.789 13.38V15.12H140.349V16.296H138.789V18.936C138.789 19.264 138.861 19.504 139.005 19.656C139.157 19.8 139.389 19.872 139.701 19.872C139.813 19.872 139.925 19.86 140.037 19.836C140.157 19.804 140.261 19.756 140.349 19.692V20.928C140.237 20.992 140.093 21.044 139.917 21.084C139.741 21.124 139.533 21.144 139.293 21.144C138.701 21.144 138.237 20.972 137.901 20.628C137.573 20.284 137.409 19.804 137.409 19.188V16.296H136.533V15.12H137.409V13.38H138.789ZM142.967 12.6V21H141.575V12.6H142.967ZM150.02 19.62C149.772 20.084 149.424 20.456 148.976 20.736C148.528 21.008 147.992 21.144 147.368 21.144C146.92 21.144 146.508 21.068 146.132 20.916C145.756 20.764 145.432 20.552 145.16 20.28C144.896 20.008 144.688 19.684 144.536 19.308C144.384 18.932 144.308 18.516 144.308 18.06C144.308 17.62 144.384 17.212 144.536 16.836C144.688 16.46 144.896 16.136 145.16 15.864C145.432 15.584 145.748 15.368 146.108 15.216C146.476 15.056 146.872 14.976 147.296 14.976C147.728 14.976 148.12 15.056 148.472 15.216C148.832 15.368 149.14 15.584 149.396 15.864C149.66 16.136 149.864 16.46 150.008 16.836C150.152 17.212 150.224 17.62 150.224 18.06C150.224 18.172 150.22 18.312 150.212 18.48H145.688C145.704 18.696 145.76 18.896 145.856 19.08C145.952 19.256 146.076 19.412 146.228 19.548C146.38 19.676 146.556 19.78 146.756 19.86C146.956 19.932 147.164 19.968 147.38 19.968C147.764 19.968 148.068 19.884 148.292 19.716C148.516 19.548 148.712 19.336 148.88 19.08L150.02 19.62ZM148.844 17.472C148.82 17.28 148.764 17.1 148.676 16.932C148.588 16.764 148.476 16.62 148.34 16.5C148.204 16.38 148.044 16.288 147.86 16.224C147.676 16.152 147.48 16.116 147.272 16.116C147.064 16.116 146.868 16.156 146.684 16.236C146.508 16.316 146.348 16.42 146.204 16.548C146.068 16.668 145.956 16.812 145.868 16.98C145.78 17.14 145.724 17.304 145.7 17.472H148.844Z" fill="#17172A"/>
<path d="M250.887 12.1L254.307 20.5H252.795L251.943 18.376H248.559L247.719 20.5H246.243L249.663 12.1H250.887ZM249.027 17.116H251.487L250.251 13.996L249.027 17.116ZM255.032 17.56C255.032 17.12 255.108 16.712 255.26 16.336C255.412 15.96 255.624 15.636 255.896 15.364C256.176 15.084 256.504 14.868 256.88 14.716C257.264 14.556 257.684 14.476 258.14 14.476C258.724 14.476 259.248 14.616 259.712 14.896V16.276C259.248 15.924 258.764 15.748 258.26 15.748C257.996 15.748 257.752 15.796 257.528 15.892C257.312 15.98 257.12 16.108 256.952 16.276C256.792 16.436 256.664 16.628 256.568 16.852C256.48 17.068 256.436 17.304 256.436 17.56C256.436 17.816 256.48 18.056 256.568 18.28C256.664 18.496 256.792 18.688 256.952 18.856C257.112 19.016 257.304 19.144 257.528 19.24C257.752 19.328 257.996 19.372 258.26 19.372C258.54 19.372 258.804 19.32 259.052 19.216C259.3 19.112 259.528 18.988 259.736 18.844V20.224C259.24 20.504 258.704 20.644 258.128 20.644C257.672 20.644 257.252 20.568 256.868 20.416C256.492 20.264 256.168 20.052 255.896 19.78C255.624 19.5 255.412 19.172 255.26 18.796C255.108 18.42 255.032 18.008 255.032 17.56ZM262.828 12.88V14.62H264.388V15.796H262.828V18.436C262.828 18.764 262.9 19.004 263.044 19.156C263.196 19.3 263.428 19.372 263.74 19.372C263.852 19.372 263.964 19.36 264.076 19.336C264.196 19.304 264.3 19.256 264.388 19.192V20.428C264.276 20.492 264.132 20.544 263.956 20.584C263.78 20.624 263.572 20.644 263.332 20.644C262.74 20.644 262.276 20.472 261.94 20.128C261.612 19.784 261.448 19.304 261.448 18.688V15.796H260.572V14.62H261.448V12.88H262.828ZM265.734 20.5V14.62H267.126V20.5H265.734ZM267.282 12.904C267.282 13.136 267.198 13.336 267.03 13.504C266.87 13.672 266.666 13.756 266.418 13.756C266.186 13.756 265.986 13.672 265.818 13.504C265.65 13.336 265.566 13.136 265.566 12.904C265.566 12.664 265.65 12.46 265.818 12.292C265.986 12.124 266.186 12.04 266.418 12.04C266.666 12.04 266.87 12.128 267.03 12.304C267.198 12.472 267.282 12.672 267.282 12.904ZM271.719 14.476C272.167 14.476 272.583 14.556 272.967 14.716C273.351 14.876 273.683 15.096 273.963 15.376C274.243 15.648 274.459 15.972 274.611 16.348C274.771 16.724 274.851 17.128 274.851 17.56C274.851 17.992 274.771 18.396 274.611 18.772C274.459 19.148 274.243 19.476 273.963 19.756C273.683 20.028 273.351 20.244 272.967 20.404C272.583 20.564 272.167 20.644 271.719 20.644C271.271 20.644 270.855 20.564 270.471 20.404C270.087 20.244 269.755 20.028 269.475 19.756C269.195 19.476 268.975 19.148 268.815 18.772C268.663 18.396 268.587 17.992 268.587 17.56C268.587 17.128 268.663 16.724 268.815 16.348C268.975 15.972 269.195 15.648 269.475 15.376C269.755 15.096 270.087 14.876 270.471 14.716C270.855 14.556 271.271 14.476 271.719 14.476ZM271.719 15.748C271.471 15.748 271.239 15.796 271.023 15.892C270.815 15.988 270.631 16.116 270.471 16.276C270.319 16.436 270.195 16.628 270.099 16.852C270.011 17.076 269.967 17.312 269.967 17.56C269.967 17.816 270.011 18.056 270.099 18.28C270.195 18.496 270.319 18.684 270.471 18.844C270.631 19.004 270.815 19.132 271.023 19.228C271.239 19.324 271.471 19.372 271.719 19.372C271.967 19.372 272.195 19.324 272.403 19.228C272.619 19.132 272.803 19.004 272.955 18.844C273.115 18.684 273.239 18.496 273.327 18.28C273.423 18.056 273.471 17.816 273.471 17.56C273.471 17.312 273.423 17.076 273.327 16.852C273.239 16.628 273.115 16.436 272.955 16.276C272.803 16.116 272.619 15.988 272.403 15.892C272.195 15.796 271.967 15.748 271.719 15.748ZM277.702 20.5H276.31V14.62H277.702V15.4C277.886 15.12 278.126 14.896 278.422 14.728C278.726 14.56 279.086 14.476 279.502 14.476C280.222 14.476 280.782 14.7 281.182 15.148C281.582 15.588 281.782 16.192 281.782 16.96V20.5H280.39V17.224C280.39 16.768 280.278 16.412 280.054 16.156C279.83 15.892 279.506 15.76 279.082 15.76C278.666 15.76 278.33 15.908 278.074 16.204C277.826 16.5 277.702 16.9 277.702 17.404V20.5ZM286.546 19.24H288.73V13.576H287.17V12.256H290.146V19.24H292.258V20.5H286.546V19.24Z" fill="#17172A"/>
<path d="M246.123 21.7H292.882V22.3H246.123V21.7Z" fill="#17172A"/>
<path d="M305.887 12.1L309.307 20.5H307.795L306.943 18.376H303.559L302.719 20.5H301.243L304.663 12.1H305.887ZM304.027 17.116H306.487L305.251 13.996L304.027 17.116ZM310.032 17.56C310.032 17.12 310.108 16.712 310.26 16.336C310.412 15.96 310.624 15.636 310.896 15.364C311.176 15.084 311.504 14.868 311.88 14.716C312.264 14.556 312.684 14.476 313.14 14.476C313.724 14.476 314.248 14.616 314.712 14.896V16.276C314.248 15.924 313.764 15.748 313.26 15.748C312.996 15.748 312.752 15.796 312.528 15.892C312.312 15.98 312.12 16.108 311.952 16.276C311.792 16.436 311.664 16.628 311.568 16.852C311.48 17.068 311.436 17.304 311.436 17.56C311.436 17.816 311.48 18.056 311.568 18.28C311.664 18.496 311.792 18.688 311.952 18.856C312.112 19.016 312.304 19.144 312.528 19.24C312.752 19.328 312.996 19.372 313.26 19.372C313.54 19.372 313.804 19.32 314.052 19.216C314.3 19.112 314.528 18.988 314.736 18.844V20.224C314.24 20.504 313.704 20.644 313.128 20.644C312.672 20.644 312.252 20.568 311.868 20.416C311.492 20.264 311.168 20.052 310.896 19.78C310.624 19.5 310.412 19.172 310.26 18.796C310.108 18.42 310.032 18.008 310.032 17.56ZM317.828 12.88V14.62H319.388V15.796H317.828V18.436C317.828 18.764 317.9 19.004 318.044 19.156C318.196 19.3 318.428 19.372 318.74 19.372C318.852 19.372 318.964 19.36 319.076 19.336C319.196 19.304 319.3 19.256 319.388 19.192V20.428C319.276 20.492 319.132 20.544 318.956 20.584C318.78 20.624 318.572 20.644 318.332 20.644C317.74 20.644 317.276 20.472 316.94 20.128C316.612 19.784 316.448 19.304 316.448 18.688V15.796H315.572V14.62H316.448V12.88H317.828ZM320.734 20.5V14.62H322.126V20.5H320.734ZM322.282 12.904C322.282 13.136 322.198 13.336 322.03 13.504C321.87 13.672 321.666 13.756 321.418 13.756C321.186 13.756 320.986 13.672 320.818 13.504C320.65 13.336 320.566 13.136 320.566 12.904C320.566 12.664 320.65 12.46 320.818 12.292C320.986 12.124 321.186 12.04 321.418 12.04C321.666 12.04 321.87 12.128 322.03 12.304C322.198 12.472 322.282 12.672 322.282 12.904ZM326.719 14.476C327.167 14.476 327.583 14.556 327.967 14.716C328.351 14.876 328.683 15.096 328.963 15.376C329.243 15.648 329.459 15.972 329.611 16.348C329.771 16.724 329.851 17.128 329.851 17.56C329.851 17.992 329.771 18.396 329.611 18.772C329.459 19.148 329.243 19.476 328.963 19.756C328.683 20.028 328.351 20.244 327.967 20.404C327.583 20.564 327.167 20.644 326.719 20.644C326.271 20.644 325.855 20.564 325.471 20.404C325.087 20.244 324.755 20.028 324.475 19.756C324.195 19.476 323.975 19.148 323.815 18.772C323.663 18.396 323.587 17.992 323.587 17.56C323.587 17.128 323.663 16.724 323.815 16.348C323.975 15.972 324.195 15.648 324.475 15.376C324.755 15.096 325.087 14.876 325.471 14.716C325.855 14.556 326.271 14.476 326.719 14.476ZM326.719 15.748C326.471 15.748 326.239 15.796 326.023 15.892C325.815 15.988 325.631 16.116 325.471 16.276C325.319 16.436 325.195 16.628 325.099 16.852C325.011 17.076 324.967 17.312 324.967 17.56C324.967 17.816 325.011 18.056 325.099 18.28C325.195 18.496 325.319 18.684 325.471 18.844C325.631 19.004 325.815 19.132 326.023 19.228C326.239 19.324 326.471 19.372 326.719 19.372C326.967 19.372 327.195 19.324 327.403 19.228C327.619 19.132 327.803 19.004 327.955 18.844C328.115 18.684 328.239 18.496 328.327 18.28C328.423 18.056 328.471 17.816 328.471 17.56C328.471 17.312 328.423 17.076 328.327 16.852C328.239 16.628 328.115 16.436 327.955 16.276C327.803 16.116 327.619 15.988 327.403 15.892C327.195 15.796 326.967 15.748 326.719 15.748ZM332.702 20.5H331.31V14.62H332.702V15.4C332.886 15.12 333.126 14.896 333.422 14.728C333.726 14.56 334.086 14.476 334.502 14.476C335.222 14.476 335.782 14.7 336.182 15.148C336.582 15.588 336.782 16.192 336.782 16.96V20.5H335.39V17.224C335.39 16.768 335.278 16.412 335.054 16.156C334.83 15.892 334.506 15.76 334.082 15.76C333.666 15.76 333.33 15.908 333.074 16.204C332.826 16.5 332.702 16.9 332.702 17.404V20.5ZM344.27 12.112C344.67 12.112 345.042 12.176 345.386 12.304C345.73 12.432 346.026 12.612 346.274 12.844C346.522 13.068 346.714 13.34 346.85 13.66C346.994 13.98 347.066 14.328 347.066 14.704C347.066 14.952 347.034 15.192 346.97 15.424C346.906 15.648 346.806 15.872 346.67 16.096C346.542 16.312 346.374 16.536 346.166 16.768C345.966 16.992 345.722 17.232 345.434 17.488L343.466 19.216H347.15V20.5H341.438V19.36L344.654 16.468C345.006 16.148 345.258 15.856 345.41 15.592C345.562 15.328 345.638 15.06 345.638 14.788C345.638 14.596 345.602 14.42 345.53 14.26C345.458 14.092 345.362 13.948 345.242 13.828C345.122 13.708 344.978 13.616 344.81 13.552C344.642 13.48 344.462 13.444 344.27 13.444C344.054 13.444 343.858 13.488 343.682 13.576C343.514 13.656 343.37 13.768 343.25 13.912C343.13 14.056 343.034 14.228 342.962 14.428C342.898 14.628 342.866 14.84 342.866 15.064H341.474C341.474 14.624 341.538 14.224 341.666 13.864C341.802 13.504 341.994 13.196 342.242 12.94C342.49 12.676 342.782 12.472 343.118 12.328C343.462 12.184 343.846 12.112 344.27 12.112Z" fill="#17172A"/>
<path d="M301.123 21.7H347.882V22.3H301.123V21.7Z" fill="#17172A"/>
<path d="M369.102 13.8789L366.23 16.75L369.102 19.6484C369.457 19.9766 369.457 20.5508 369.102 20.8789C368.773 21.2344 368.199 21.2344 367.871 20.8789L365 18.0078L362.102 20.8789C361.773 21.2344 361.199 21.2344 360.871 20.8789C360.516 20.5508 360.516 19.9766 360.871 19.6484L363.742 16.75L360.871 13.8789C360.516 13.5508 360.516 12.9766 360.871 12.6484C361.199 12.293 361.773 12.293 362.102 12.6484L365 15.5195L367.871 12.6484C368.199 12.293 368.773 12.293 369.102 12.6484C369.457 12.9766 369.457 13.5508 369.102 13.8789Z" fill="#17172A"/>
</svg>
