<svg width="116" height="42" viewBox="0 0 116 42" fill="none" xmlns="http://www.w3.org/2000/svg">
<rect width="116" height="42" rx="12" fill="#5C34CD"/>
<path d="M21.148 16.2H24.466C24.914 16.2 25.3247 16.2607 25.698 16.382C26.0807 16.5033 26.4073 16.676 26.678 16.9C26.958 17.124 27.1727 17.3993 27.322 17.726C27.4713 18.0433 27.546 18.4073 27.546 18.818C27.546 19.266 27.4433 19.658 27.238 19.994C27.042 20.33 26.7573 20.5913 26.384 20.778C26.9533 20.9647 27.3873 21.2633 27.686 21.674C27.9847 22.0847 28.134 22.584 28.134 23.172C28.134 23.6107 28.0547 24.0073 27.896 24.362C27.7373 24.7073 27.5087 25.0013 27.21 25.244C26.9113 25.4867 26.552 25.6733 26.132 25.804C25.712 25.9347 25.2407 26 24.718 26H21.148V16.2ZM24.648 24.558C25.1893 24.558 25.6233 24.432 25.95 24.18C26.2767 23.928 26.44 23.564 26.44 23.088C26.44 22.6307 26.272 22.276 25.936 22.024C25.6093 21.7627 25.1753 21.632 24.634 21.632H22.8V24.558H24.648ZM24.354 20.246C24.8113 20.246 25.1847 20.134 25.474 19.91C25.7633 19.6767 25.908 19.35 25.908 18.93C25.908 18.51 25.7633 18.188 25.474 17.964C25.1847 17.74 24.8113 17.628 24.354 17.628H22.8V20.246H24.354ZM34.337 19.14H35.961V26H34.337V25.09C34.1223 25.4167 33.8377 25.678 33.483 25.874C33.1377 26.07 32.727 26.168 32.251 26.168C31.4297 26.168 30.7857 25.9113 30.319 25.398C29.8617 24.8753 29.633 24.166 29.633 23.27V19.14H31.257V22.962C31.257 23.494 31.383 23.914 31.635 24.222C31.8963 24.5207 32.265 24.67 32.741 24.67C33.2263 24.67 33.6137 24.4973 33.903 24.152C34.1923 23.8067 34.337 23.34 34.337 22.752V19.14ZM39.8788 17.11V19.14H41.6988V20.512H39.8788V23.592C39.8788 23.9747 39.9628 24.2547 40.1308 24.432C40.3081 24.6 40.5788 24.684 40.9428 24.684C41.0735 24.684 41.2041 24.67 41.3348 24.642C41.4748 24.6047 41.5961 24.5487 41.6988 24.474V25.916C41.5681 25.9907 41.4001 26.0513 41.1948 26.098C40.9895 26.1447 40.7468 26.168 40.4668 26.168C39.7761 26.168 39.2348 25.9673 38.8428 25.566C38.4601 25.1647 38.2688 24.6047 38.2688 23.886V20.512H37.2468V19.14H38.2688V17.11H39.8788ZM45.0331 17.11V19.14H46.8531V20.512H45.0331V23.592C45.0331 23.9747 45.1171 24.2547 45.2851 24.432C45.4624 24.6 45.7331 24.684 46.0971 24.684C46.2278 24.684 46.3584 24.67 46.4891 24.642C46.6291 24.6047 46.7504 24.5487 46.8531 24.474V25.916C46.7224 25.9907 46.5544 26.0513 46.3491 26.098C46.1438 26.1447 45.9011 26.168 45.6211 26.168C44.9304 26.168 44.3891 25.9673 43.9971 25.566C43.6144 25.1647 43.4231 24.6047 43.4231 23.886V20.512H42.4011V19.14H43.4231V17.11H45.0331ZM51.4894 18.972C52.0121 18.972 52.4974 19.0653 52.9454 19.252C53.3934 19.4387 53.7807 19.6953 54.1074 20.022C54.4341 20.3393 54.6861 20.7173 54.8634 21.156C55.0501 21.5947 55.1434 22.066 55.1434 22.57C55.1434 23.074 55.0501 23.5453 54.8634 23.984C54.6861 24.4227 54.4341 24.8053 54.1074 25.132C53.7807 25.4493 53.3934 25.7013 52.9454 25.888C52.4974 26.0747 52.0121 26.168 51.4894 26.168C50.9667 26.168 50.4814 26.0747 50.0334 25.888C49.5854 25.7013 49.1981 25.4493 48.8714 25.132C48.5447 24.8053 48.2881 24.4227 48.1014 23.984C47.9241 23.5453 47.8354 23.074 47.8354 22.57C47.8354 22.066 47.9241 21.5947 48.1014 21.156C48.2881 20.7173 48.5447 20.3393 48.8714 20.022C49.1981 19.6953 49.5854 19.4387 50.0334 19.252C50.4814 19.0653 50.9667 18.972 51.4894 18.972ZM51.4894 20.456C51.2001 20.456 50.9294 20.512 50.6774 20.624C50.4347 20.736 50.2201 20.8853 50.0334 21.072C49.8561 21.2587 49.7114 21.4827 49.5994 21.744C49.4967 22.0053 49.4454 22.2807 49.4454 22.57C49.4454 22.8687 49.4967 23.1487 49.5994 23.41C49.7114 23.662 49.8561 23.8813 50.0334 24.068C50.2201 24.2547 50.4347 24.404 50.6774 24.516C50.9294 24.628 51.2001 24.684 51.4894 24.684C51.7787 24.684 52.0447 24.628 52.2874 24.516C52.5394 24.404 52.7541 24.2547 52.9314 24.068C53.1181 23.8813 53.2627 23.662 53.3654 23.41C53.4774 23.1487 53.5334 22.8687 53.5334 22.57C53.5334 22.2807 53.4774 22.0053 53.3654 21.744C53.2627 21.4827 53.1181 21.2587 52.9314 21.072C52.7541 20.8853 52.5394 20.736 52.2874 20.624C52.0447 20.512 51.7787 20.456 51.4894 20.456ZM58.3293 26H56.7053V19.14H58.3293V20.05C58.5439 19.7233 58.8239 19.462 59.1693 19.266C59.5239 19.07 59.9439 18.972 60.4293 18.972C61.2693 18.972 61.9226 19.2333 62.3893 19.756C62.8559 20.2693 63.0893 20.974 63.0893 21.87V26H61.4653V22.178C61.4653 21.646 61.3346 21.2307 61.0733 20.932C60.8119 20.624 60.4339 20.47 59.9393 20.47C59.4539 20.47 59.0619 20.6427 58.7633 20.988C58.4739 21.3333 58.3293 21.8 58.3293 22.388V26ZM67.6254 16.2H74.7514V17.754H72.0354V26H70.3414V17.754H67.6254V16.2ZM82.2396 24.39C81.9503 24.9313 81.5443 25.3653 81.0216 25.692C80.499 26.0093 79.8736 26.168 79.1456 26.168C78.623 26.168 78.1423 26.0793 77.7036 25.902C77.265 25.7247 76.887 25.4773 76.5696 25.16C76.2616 24.8427 76.019 24.4647 75.8416 24.026C75.6643 23.5873 75.5756 23.102 75.5756 22.57C75.5756 22.0567 75.6643 21.5807 75.8416 21.142C76.019 20.7033 76.2616 20.3253 76.5696 20.008C76.887 19.6813 77.2556 19.4293 77.6756 19.252C78.105 19.0653 78.567 18.972 79.0616 18.972C79.5656 18.972 80.023 19.0653 80.4336 19.252C80.8536 19.4293 81.213 19.6813 81.5116 20.008C81.8196 20.3253 82.0576 20.7033 82.2256 21.142C82.3936 21.5807 82.4776 22.0567 82.4776 22.57C82.4776 22.7007 82.473 22.864 82.4636 23.06H77.1856C77.2043 23.312 77.2696 23.5453 77.3816 23.76C77.4936 23.9653 77.6383 24.1473 77.8156 24.306C77.993 24.4553 78.1983 24.5767 78.4316 24.67C78.665 24.754 78.9076 24.796 79.1596 24.796C79.6076 24.796 79.9623 24.698 80.2236 24.502C80.485 24.306 80.7136 24.0587 80.9096 23.76L82.2396 24.39ZM80.8676 21.884C80.8396 21.66 80.7743 21.45 80.6716 21.254C80.569 21.058 80.4383 20.89 80.2796 20.75C80.121 20.61 79.9343 20.5027 79.7196 20.428C79.505 20.344 79.2763 20.302 79.0336 20.302C78.791 20.302 78.5623 20.3487 78.3476 20.442C78.1423 20.5353 77.9556 20.6567 77.7876 20.806C77.629 20.946 77.4983 21.114 77.3956 21.31C77.293 21.4967 77.2276 21.688 77.1996 21.884H80.8676ZM86.6407 23.648L84.9747 26H83.1687L85.7167 22.514L83.2807 19.14H85.1427L86.6827 21.338L88.2367 19.14H90.0707L87.6207 22.472L90.1687 26H88.2927L86.6407 23.648ZM93.2811 17.11V19.14H95.1011V20.512H93.2811V23.592C93.2811 23.9747 93.3651 24.2547 93.5331 24.432C93.7105 24.6 93.9811 24.684 94.3451 24.684C94.4758 24.684 94.6065 24.67 94.7371 24.642C94.8771 24.6047 94.9985 24.5487 95.1011 24.474V25.916C94.9705 25.9907 94.8025 26.0513 94.5971 26.098C94.3918 26.1447 94.1491 26.168 93.8691 26.168C93.1785 26.168 92.6371 25.9673 92.2451 25.566C91.8625 25.1647 91.6711 24.6047 91.6711 23.886V20.512H90.6491V19.14H91.6711V17.11H93.2811Z" fill="white"/>
</svg>
