<svg width="350" height="42" viewBox="0 0 350 42" fill="none" xmlns="http://www.w3.org/2000/svg">
<g clip-path="url(#clip0_4542_254)">
<rect width="350" height="42" rx="12" fill="white"/>
<rect width="116" height="42" fill="#EFEBFA"/>
<path d="M21.3863 16.2H24.7043C25.1523 16.2 25.5629 16.2607 25.9363 16.382C26.3189 16.5033 26.6456 16.676 26.9163 16.9C27.1963 17.124 27.4109 17.3993 27.5603 17.726C27.7096 18.0433 27.7843 18.4073 27.7843 18.818C27.7843 19.266 27.6816 19.658 27.4763 19.994C27.2803 20.33 26.9956 20.5913 26.6223 20.778C27.1916 20.9647 27.6256 21.2633 27.9243 21.674C28.2229 22.0847 28.3723 22.584 28.3723 23.172C28.3723 23.6107 28.2929 24.0073 28.1343 24.362C27.9756 24.7073 27.7469 25.0013 27.4483 25.244C27.1496 25.4867 26.7903 25.6733 26.3703 25.804C25.9503 25.9347 25.4789 26 24.9563 26H21.3863V16.2ZM24.8863 24.558C25.4276 24.558 25.8616 24.432 26.1883 24.18C26.5149 23.928 26.6783 23.564 26.6783 23.088C26.6783 22.6307 26.5103 22.276 26.1743 22.024C25.8476 21.7627 25.4136 21.632 24.8723 21.632H23.0383V24.558H24.8863ZM24.5923 20.246C25.0496 20.246 25.4229 20.134 25.7123 19.91C26.0016 19.6767 26.1463 19.35 26.1463 18.93C26.1463 18.51 26.0016 18.188 25.7123 17.964C25.4229 17.74 25.0496 17.628 24.5923 17.628H23.0383V20.246H24.5923ZM34.5753 19.14H36.1993V26H34.5753V25.09C34.3606 25.4167 34.0759 25.678 33.7213 25.874C33.3759 26.07 32.9653 26.168 32.4893 26.168C31.6679 26.168 31.0239 25.9113 30.5573 25.398C30.0999 24.8753 29.8713 24.166 29.8713 23.27V19.14H31.4953V22.962C31.4953 23.494 31.6213 23.914 31.8733 24.222C32.1346 24.5207 32.5033 24.67 32.9793 24.67C33.4646 24.67 33.8519 24.4973 34.1413 24.152C34.4306 23.8067 34.5753 23.34 34.5753 22.752V19.14ZM40.1171 17.11V19.14H41.9371V20.512H40.1171V23.592C40.1171 23.9747 40.2011 24.2547 40.3691 24.432C40.5464 24.6 40.8171 24.684 41.1811 24.684C41.3117 24.684 41.4424 24.67 41.5731 24.642C41.7131 24.6047 41.8344 24.5487 41.9371 24.474V25.916C41.8064 25.9907 41.6384 26.0513 41.4331 26.098C41.2277 26.1447 40.9851 26.168 40.7051 26.168C40.0144 26.168 39.4731 25.9673 39.0811 25.566C38.6984 25.1647 38.5071 24.6047 38.5071 23.886V20.512H37.4851V19.14H38.5071V17.11H40.1171ZM45.2714 17.11V19.14H47.0914V20.512H45.2714V23.592C45.2714 23.9747 45.3554 24.2547 45.5234 24.432C45.7007 24.6 45.9714 24.684 46.3354 24.684C46.466 24.684 46.5967 24.67 46.7274 24.642C46.8674 24.6047 46.9887 24.5487 47.0914 24.474V25.916C46.9607 25.9907 46.7927 26.0513 46.5874 26.098C46.382 26.1447 46.1394 26.168 45.8594 26.168C45.1687 26.168 44.6274 25.9673 44.2354 25.566C43.8527 25.1647 43.6614 24.6047 43.6614 23.886V20.512H42.6394V19.14H43.6614V17.11H45.2714ZM51.7277 18.972C52.2503 18.972 52.7357 19.0653 53.1837 19.252C53.6317 19.4387 54.019 19.6953 54.3457 20.022C54.6723 20.3393 54.9243 20.7173 55.1017 21.156C55.2883 21.5947 55.3817 22.066 55.3817 22.57C55.3817 23.074 55.2883 23.5453 55.1017 23.984C54.9243 24.4227 54.6723 24.8053 54.3457 25.132C54.019 25.4493 53.6317 25.7013 53.1837 25.888C52.7357 26.0747 52.2503 26.168 51.7277 26.168C51.205 26.168 50.7197 26.0747 50.2717 25.888C49.8237 25.7013 49.4363 25.4493 49.1097 25.132C48.783 24.8053 48.5263 24.4227 48.3397 23.984C48.1623 23.5453 48.0737 23.074 48.0737 22.57C48.0737 22.066 48.1623 21.5947 48.3397 21.156C48.5263 20.7173 48.783 20.3393 49.1097 20.022C49.4363 19.6953 49.8237 19.4387 50.2717 19.252C50.7197 19.0653 51.205 18.972 51.7277 18.972ZM51.7277 20.456C51.4383 20.456 51.1677 20.512 50.9157 20.624C50.673 20.736 50.4583 20.8853 50.2717 21.072C50.0943 21.2587 49.9497 21.4827 49.8377 21.744C49.735 22.0053 49.6837 22.2807 49.6837 22.57C49.6837 22.8687 49.735 23.1487 49.8377 23.41C49.9497 23.662 50.0943 23.8813 50.2717 24.068C50.4583 24.2547 50.673 24.404 50.9157 24.516C51.1677 24.628 51.4383 24.684 51.7277 24.684C52.017 24.684 52.283 24.628 52.5257 24.516C52.7777 24.404 52.9923 24.2547 53.1697 24.068C53.3563 23.8813 53.501 23.662 53.6037 23.41C53.7157 23.1487 53.7717 22.8687 53.7717 22.57C53.7717 22.2807 53.7157 22.0053 53.6037 21.744C53.501 21.4827 53.3563 21.2587 53.1697 21.072C52.9923 20.8853 52.7777 20.736 52.5257 20.624C52.283 20.512 52.017 20.456 51.7277 20.456ZM58.5675 26H56.9435V19.14H58.5675V20.05C58.7822 19.7233 59.0622 19.462 59.4075 19.266C59.7622 19.07 60.1822 18.972 60.6675 18.972C61.5075 18.972 62.1609 19.2333 62.6275 19.756C63.0942 20.2693 63.3275 20.974 63.3275 21.87V26H61.7035V22.178C61.7035 21.646 61.5729 21.2307 61.3115 20.932C61.0502 20.624 60.6722 20.47 60.1775 20.47C59.6922 20.47 59.3002 20.6427 59.0015 20.988C58.7122 21.3333 58.5675 21.8 58.5675 22.388V26ZM67.8637 16.2H74.9897V17.754H72.2737V26H70.5797V17.754H67.8637V16.2ZM82.4779 24.39C82.1886 24.9313 81.7826 25.3653 81.2599 25.692C80.7372 26.0093 80.1119 26.168 79.3839 26.168C78.8612 26.168 78.3806 26.0793 77.9419 25.902C77.5032 25.7247 77.1252 25.4773 76.8079 25.16C76.4999 24.8427 76.2572 24.4647 76.0799 24.026C75.9026 23.5873 75.8139 23.102 75.8139 22.57C75.8139 22.0567 75.9026 21.5807 76.0799 21.142C76.2572 20.7033 76.4999 20.3253 76.8079 20.008C77.1252 19.6813 77.4939 19.4293 77.9139 19.252C78.3432 19.0653 78.8052 18.972 79.2999 18.972C79.8039 18.972 80.2612 19.0653 80.6719 19.252C81.0919 19.4293 81.4512 19.6813 81.7499 20.008C82.0579 20.3253 82.2959 20.7033 82.4639 21.142C82.6319 21.5807 82.7159 22.0567 82.7159 22.57C82.7159 22.7007 82.7112 22.864 82.7019 23.06H77.4239C77.4426 23.312 77.5079 23.5453 77.6199 23.76C77.7319 23.9653 77.8766 24.1473 78.0539 24.306C78.2312 24.4553 78.4366 24.5767 78.6699 24.67C78.9032 24.754 79.1459 24.796 79.3979 24.796C79.8459 24.796 80.2006 24.698 80.4619 24.502C80.7232 24.306 80.9519 24.0587 81.1479 23.76L82.4779 24.39ZM81.1059 21.884C81.0779 21.66 81.0126 21.45 80.9099 21.254C80.8072 21.058 80.6766 20.89 80.5179 20.75C80.3592 20.61 80.1726 20.5027 79.9579 20.428C79.7432 20.344 79.5146 20.302 79.2719 20.302C79.0292 20.302 78.8006 20.3487 78.5859 20.442C78.3806 20.5353 78.1939 20.6567 78.0259 20.806C77.8672 20.946 77.7366 21.114 77.6339 21.31C77.5312 21.4967 77.4659 21.688 77.4379 21.884H81.1059ZM86.8789 23.648L85.2129 26H83.4069L85.9549 22.514L83.5189 19.14H85.3809L86.9209 21.338L88.4749 19.14H90.3089L87.8589 22.472L90.4069 26H88.5309L86.8789 23.648ZM93.5194 17.11V19.14H95.3394V20.512H93.5194V23.592C93.5194 23.9747 93.6034 24.2547 93.7714 24.432C93.9488 24.6 94.2194 24.684 94.5834 24.684C94.7141 24.684 94.8448 24.67 94.9754 24.642C95.1154 24.6047 95.2368 24.5487 95.3394 24.474V25.916C95.2088 25.9907 95.0408 26.0513 94.8354 26.098C94.6301 26.1447 94.3874 26.168 94.1074 26.168C93.4168 26.168 92.8754 25.9673 92.4834 25.566C92.1008 25.1647 91.9094 24.6047 91.9094 23.886V20.512H90.8874V19.14H91.9094V17.11H93.5194Z" fill="#17172A"/>
<rect x="116" width="1" height="42" fill="#E1E1E1"/>
<path d="M138.386 16.2H141.704C142.152 16.2 142.563 16.2607 142.936 16.382C143.319 16.5033 143.646 16.676 143.916 16.9C144.196 17.124 144.411 17.3993 144.56 17.726C144.71 18.0433 144.784 18.4073 144.784 18.818C144.784 19.266 144.682 19.658 144.476 19.994C144.28 20.33 143.996 20.5913 143.622 20.778C144.192 20.9647 144.626 21.2633 144.924 21.674C145.223 22.0847 145.372 22.584 145.372 23.172C145.372 23.6107 145.293 24.0073 145.134 24.362C144.976 24.7073 144.747 25.0013 144.448 25.244C144.15 25.4867 143.79 25.6733 143.37 25.804C142.95 25.9347 142.479 26 141.956 26H138.386V16.2ZM141.886 24.558C142.428 24.558 142.862 24.432 143.188 24.18C143.515 23.928 143.678 23.564 143.678 23.088C143.678 22.6307 143.51 22.276 143.174 22.024C142.848 21.7627 142.414 21.632 141.872 21.632H140.038V24.558H141.886ZM141.592 20.246C142.05 20.246 142.423 20.134 142.712 19.91C143.002 19.6767 143.146 19.35 143.146 18.93C143.146 18.51 143.002 18.188 142.712 17.964C142.423 17.74 142.05 17.628 141.592 17.628H140.038V20.246H141.592ZM151.575 19.14H153.199V26H151.575V25.09C151.361 25.4167 151.076 25.678 150.721 25.874C150.376 26.07 149.965 26.168 149.489 26.168C148.668 26.168 148.024 25.9113 147.557 25.398C147.1 24.8753 146.871 24.166 146.871 23.27V19.14H148.495V22.962C148.495 23.494 148.621 23.914 148.873 24.222C149.135 24.5207 149.503 24.67 149.979 24.67C150.465 24.67 150.852 24.4973 151.141 24.152C151.431 23.8067 151.575 23.34 151.575 22.752V19.14ZM157.117 17.11V19.14H158.937V20.512H157.117V23.592C157.117 23.9747 157.201 24.2547 157.369 24.432C157.546 24.6 157.817 24.684 158.181 24.684C158.312 24.684 158.442 24.67 158.573 24.642C158.713 24.6047 158.834 24.5487 158.937 24.474V25.916C158.806 25.9907 158.638 26.0513 158.433 26.098C158.228 26.1447 157.985 26.168 157.705 26.168C157.014 26.168 156.473 25.9673 156.081 25.566C155.698 25.1647 155.507 24.6047 155.507 23.886V20.512H154.485V19.14H155.507V17.11H157.117ZM162.271 17.11V19.14H164.091V20.512H162.271V23.592C162.271 23.9747 162.355 24.2547 162.523 24.432C162.701 24.6 162.971 24.684 163.335 24.684C163.466 24.684 163.597 24.67 163.727 24.642C163.867 24.6047 163.989 24.5487 164.091 24.474V25.916C163.961 25.9907 163.793 26.0513 163.587 26.098C163.382 26.1447 163.139 26.168 162.859 26.168C162.169 26.168 161.627 25.9673 161.235 25.566C160.853 25.1647 160.661 24.6047 160.661 23.886V20.512H159.639V19.14H160.661V17.11H162.271ZM168.728 18.972C169.25 18.972 169.736 19.0653 170.184 19.252C170.632 19.4387 171.019 19.6953 171.346 20.022C171.672 20.3393 171.924 20.7173 172.102 21.156C172.288 21.5947 172.382 22.066 172.382 22.57C172.382 23.074 172.288 23.5453 172.102 23.984C171.924 24.4227 171.672 24.8053 171.346 25.132C171.019 25.4493 170.632 25.7013 170.184 25.888C169.736 26.0747 169.25 26.168 168.728 26.168C168.205 26.168 167.72 26.0747 167.272 25.888C166.824 25.7013 166.436 25.4493 166.11 25.132C165.783 24.8053 165.526 24.4227 165.34 23.984C165.162 23.5453 165.074 23.074 165.074 22.57C165.074 22.066 165.162 21.5947 165.34 21.156C165.526 20.7173 165.783 20.3393 166.11 20.022C166.436 19.6953 166.824 19.4387 167.272 19.252C167.72 19.0653 168.205 18.972 168.728 18.972ZM168.728 20.456C168.438 20.456 168.168 20.512 167.916 20.624C167.673 20.736 167.458 20.8853 167.272 21.072C167.094 21.2587 166.95 21.4827 166.838 21.744C166.735 22.0053 166.684 22.2807 166.684 22.57C166.684 22.8687 166.735 23.1487 166.838 23.41C166.95 23.662 167.094 23.8813 167.272 24.068C167.458 24.2547 167.673 24.404 167.916 24.516C168.168 24.628 168.438 24.684 168.728 24.684C169.017 24.684 169.283 24.628 169.526 24.516C169.778 24.404 169.992 24.2547 170.17 24.068C170.356 23.8813 170.501 23.662 170.604 23.41C170.716 23.1487 170.772 22.8687 170.772 22.57C170.772 22.2807 170.716 22.0053 170.604 21.744C170.501 21.4827 170.356 21.2587 170.17 21.072C169.992 20.8853 169.778 20.736 169.526 20.624C169.283 20.512 169.017 20.456 168.728 20.456ZM175.568 26H173.944V19.14H175.568V20.05C175.782 19.7233 176.062 19.462 176.408 19.266C176.762 19.07 177.182 18.972 177.668 18.972C178.508 18.972 179.161 19.2333 179.628 19.756C180.094 20.2693 180.328 20.974 180.328 21.87V26H178.704V22.178C178.704 21.646 178.573 21.2307 178.312 20.932C178.05 20.624 177.672 20.47 177.178 20.47C176.692 20.47 176.3 20.6427 176.002 20.988C175.712 21.3333 175.568 21.8 175.568 22.388V26ZM184.864 16.2H191.99V17.754H189.274V26H187.58V17.754H184.864V16.2ZM199.478 24.39C199.189 24.9313 198.783 25.3653 198.26 25.692C197.737 26.0093 197.112 26.168 196.384 26.168C195.861 26.168 195.381 26.0793 194.942 25.902C194.503 25.7247 194.125 25.4773 193.808 25.16C193.5 24.8427 193.257 24.4647 193.08 24.026C192.903 23.5873 192.814 23.102 192.814 22.57C192.814 22.0567 192.903 21.5807 193.08 21.142C193.257 20.7033 193.5 20.3253 193.808 20.008C194.125 19.6813 194.494 19.4293 194.914 19.252C195.343 19.0653 195.805 18.972 196.3 18.972C196.804 18.972 197.261 19.0653 197.672 19.252C198.092 19.4293 198.451 19.6813 198.75 20.008C199.058 20.3253 199.296 20.7033 199.464 21.142C199.632 21.5807 199.716 22.0567 199.716 22.57C199.716 22.7007 199.711 22.864 199.702 23.06H194.424C194.443 23.312 194.508 23.5453 194.62 23.76C194.732 23.9653 194.877 24.1473 195.054 24.306C195.231 24.4553 195.437 24.5767 195.67 24.67C195.903 24.754 196.146 24.796 196.398 24.796C196.846 24.796 197.201 24.698 197.462 24.502C197.723 24.306 197.952 24.0587 198.148 23.76L199.478 24.39ZM198.106 21.884C198.078 21.66 198.013 21.45 197.91 21.254C197.807 21.058 197.677 20.89 197.518 20.75C197.359 20.61 197.173 20.5027 196.958 20.428C196.743 20.344 196.515 20.302 196.272 20.302C196.029 20.302 195.801 20.3487 195.586 20.442C195.381 20.5353 195.194 20.6567 195.026 20.806C194.867 20.946 194.737 21.114 194.634 21.31C194.531 21.4967 194.466 21.688 194.438 21.884H198.106ZM203.879 23.648L202.213 26H200.407L202.955 22.514L200.519 19.14H202.381L203.921 21.338L205.475 19.14H207.309L204.859 22.472L207.407 26H205.531L203.879 23.648ZM210.519 17.11V19.14H212.339V20.512H210.519V23.592C210.519 23.9747 210.603 24.2547 210.771 24.432C210.949 24.6 211.219 24.684 211.583 24.684C211.714 24.684 211.845 24.67 211.975 24.642C212.115 24.6047 212.237 24.5487 212.339 24.474V25.916C212.209 25.9907 212.041 26.0513 211.835 26.098C211.63 26.1447 211.387 26.168 211.107 26.168C210.417 26.168 209.875 25.9673 209.483 25.566C209.101 25.1647 208.909 24.6047 208.909 23.886V20.512H207.887V19.14H208.909V17.11H210.519Z" fill="#565656"/>
<rect x="233" width="1" height="42" fill="#E1E1E1"/>
<path d="M255.386 16.2H258.704C259.152 16.2 259.563 16.2607 259.936 16.382C260.319 16.5033 260.646 16.676 260.916 16.9C261.196 17.124 261.411 17.3993 261.56 17.726C261.71 18.0433 261.784 18.4073 261.784 18.818C261.784 19.266 261.682 19.658 261.476 19.994C261.28 20.33 260.996 20.5913 260.622 20.778C261.192 20.9647 261.626 21.2633 261.924 21.674C262.223 22.0847 262.372 22.584 262.372 23.172C262.372 23.6107 262.293 24.0073 262.134 24.362C261.976 24.7073 261.747 25.0013 261.448 25.244C261.15 25.4867 260.79 25.6733 260.37 25.804C259.95 25.9347 259.479 26 258.956 26H255.386V16.2ZM258.886 24.558C259.428 24.558 259.862 24.432 260.188 24.18C260.515 23.928 260.678 23.564 260.678 23.088C260.678 22.6307 260.51 22.276 260.174 22.024C259.848 21.7627 259.414 21.632 258.872 21.632H257.038V24.558H258.886ZM258.592 20.246C259.05 20.246 259.423 20.134 259.712 19.91C260.002 19.6767 260.146 19.35 260.146 18.93C260.146 18.51 260.002 18.188 259.712 17.964C259.423 17.74 259.05 17.628 258.592 17.628H257.038V20.246H258.592ZM268.575 19.14H270.199V26H268.575V25.09C268.361 25.4167 268.076 25.678 267.721 25.874C267.376 26.07 266.965 26.168 266.489 26.168C265.668 26.168 265.024 25.9113 264.557 25.398C264.1 24.8753 263.871 24.166 263.871 23.27V19.14H265.495V22.962C265.495 23.494 265.621 23.914 265.873 24.222C266.135 24.5207 266.503 24.67 266.979 24.67C267.465 24.67 267.852 24.4973 268.141 24.152C268.431 23.8067 268.575 23.34 268.575 22.752V19.14ZM274.117 17.11V19.14H275.937V20.512H274.117V23.592C274.117 23.9747 274.201 24.2547 274.369 24.432C274.546 24.6 274.817 24.684 275.181 24.684C275.312 24.684 275.442 24.67 275.573 24.642C275.713 24.6047 275.834 24.5487 275.937 24.474V25.916C275.806 25.9907 275.638 26.0513 275.433 26.098C275.228 26.1447 274.985 26.168 274.705 26.168C274.014 26.168 273.473 25.9673 273.081 25.566C272.698 25.1647 272.507 24.6047 272.507 23.886V20.512H271.485V19.14H272.507V17.11H274.117ZM279.271 17.11V19.14H281.091V20.512H279.271V23.592C279.271 23.9747 279.355 24.2547 279.523 24.432C279.701 24.6 279.971 24.684 280.335 24.684C280.466 24.684 280.597 24.67 280.727 24.642C280.867 24.6047 280.989 24.5487 281.091 24.474V25.916C280.961 25.9907 280.793 26.0513 280.587 26.098C280.382 26.1447 280.139 26.168 279.859 26.168C279.169 26.168 278.627 25.9673 278.235 25.566C277.853 25.1647 277.661 24.6047 277.661 23.886V20.512H276.639V19.14H277.661V17.11H279.271ZM285.728 18.972C286.25 18.972 286.736 19.0653 287.184 19.252C287.632 19.4387 288.019 19.6953 288.346 20.022C288.672 20.3393 288.924 20.7173 289.102 21.156C289.288 21.5947 289.382 22.066 289.382 22.57C289.382 23.074 289.288 23.5453 289.102 23.984C288.924 24.4227 288.672 24.8053 288.346 25.132C288.019 25.4493 287.632 25.7013 287.184 25.888C286.736 26.0747 286.25 26.168 285.728 26.168C285.205 26.168 284.72 26.0747 284.272 25.888C283.824 25.7013 283.436 25.4493 283.11 25.132C282.783 24.8053 282.526 24.4227 282.34 23.984C282.162 23.5453 282.074 23.074 282.074 22.57C282.074 22.066 282.162 21.5947 282.34 21.156C282.526 20.7173 282.783 20.3393 283.11 20.022C283.436 19.6953 283.824 19.4387 284.272 19.252C284.72 19.0653 285.205 18.972 285.728 18.972ZM285.728 20.456C285.438 20.456 285.168 20.512 284.916 20.624C284.673 20.736 284.458 20.8853 284.272 21.072C284.094 21.2587 283.95 21.4827 283.838 21.744C283.735 22.0053 283.684 22.2807 283.684 22.57C283.684 22.8687 283.735 23.1487 283.838 23.41C283.95 23.662 284.094 23.8813 284.272 24.068C284.458 24.2547 284.673 24.404 284.916 24.516C285.168 24.628 285.438 24.684 285.728 24.684C286.017 24.684 286.283 24.628 286.526 24.516C286.778 24.404 286.992 24.2547 287.17 24.068C287.356 23.8813 287.501 23.662 287.604 23.41C287.716 23.1487 287.772 22.8687 287.772 22.57C287.772 22.2807 287.716 22.0053 287.604 21.744C287.501 21.4827 287.356 21.2587 287.17 21.072C286.992 20.8853 286.778 20.736 286.526 20.624C286.283 20.512 286.017 20.456 285.728 20.456ZM292.568 26H290.944V19.14H292.568V20.05C292.782 19.7233 293.062 19.462 293.408 19.266C293.762 19.07 294.182 18.972 294.668 18.972C295.508 18.972 296.161 19.2333 296.628 19.756C297.094 20.2693 297.328 20.974 297.328 21.87V26H295.704V22.178C295.704 21.646 295.573 21.2307 295.312 20.932C295.05 20.624 294.672 20.47 294.178 20.47C293.692 20.47 293.3 20.6427 293.002 20.988C292.712 21.3333 292.568 21.8 292.568 22.388V26ZM301.864 16.2H308.99V17.754H306.274V26H304.58V17.754H301.864V16.2ZM316.478 24.39C316.189 24.9313 315.783 25.3653 315.26 25.692C314.737 26.0093 314.112 26.168 313.384 26.168C312.861 26.168 312.381 26.0793 311.942 25.902C311.503 25.7247 311.125 25.4773 310.808 25.16C310.5 24.8427 310.257 24.4647 310.08 24.026C309.903 23.5873 309.814 23.102 309.814 22.57C309.814 22.0567 309.903 21.5807 310.08 21.142C310.257 20.7033 310.5 20.3253 310.808 20.008C311.125 19.6813 311.494 19.4293 311.914 19.252C312.343 19.0653 312.805 18.972 313.3 18.972C313.804 18.972 314.261 19.0653 314.672 19.252C315.092 19.4293 315.451 19.6813 315.75 20.008C316.058 20.3253 316.296 20.7033 316.464 21.142C316.632 21.5807 316.716 22.0567 316.716 22.57C316.716 22.7007 316.711 22.864 316.702 23.06H311.424C311.443 23.312 311.508 23.5453 311.62 23.76C311.732 23.9653 311.877 24.1473 312.054 24.306C312.231 24.4553 312.437 24.5767 312.67 24.67C312.903 24.754 313.146 24.796 313.398 24.796C313.846 24.796 314.201 24.698 314.462 24.502C314.723 24.306 314.952 24.0587 315.148 23.76L316.478 24.39ZM315.106 21.884C315.078 21.66 315.013 21.45 314.91 21.254C314.807 21.058 314.677 20.89 314.518 20.75C314.359 20.61 314.173 20.5027 313.958 20.428C313.743 20.344 313.515 20.302 313.272 20.302C313.029 20.302 312.801 20.3487 312.586 20.442C312.381 20.5353 312.194 20.6567 312.026 20.806C311.867 20.946 311.737 21.114 311.634 21.31C311.531 21.4967 311.466 21.688 311.438 21.884H315.106ZM320.879 23.648L319.213 26H317.407L319.955 22.514L317.519 19.14H319.381L320.921 21.338L322.475 19.14H324.309L321.859 22.472L324.407 26H322.531L320.879 23.648ZM327.519 17.11V19.14H329.339V20.512H327.519V23.592C327.519 23.9747 327.603 24.2547 327.771 24.432C327.949 24.6 328.219 24.684 328.583 24.684C328.714 24.684 328.845 24.67 328.975 24.642C329.115 24.6047 329.237 24.5487 329.339 24.474V25.916C329.209 25.9907 329.041 26.0513 328.835 26.098C328.63 26.1447 328.387 26.168 328.107 26.168C327.417 26.168 326.875 25.9673 326.483 25.566C326.101 25.1647 325.909 24.6047 325.909 23.886V20.512H324.887V19.14H325.909V17.11H327.519Z" fill="#565656"/>
</g>
<rect x="0.5" y="0.5" width="349" height="41" rx="11.5" stroke="#E1E1E1"/>
<defs>
<clipPath id="clip0_4542_254">
<rect width="350" height="42" rx="12" fill="white"/>
</clipPath>
</defs>
</svg>
