<svg width="140" height="24" viewBox="0 0 140 24" fill="none" xmlns="http://www.w3.org/2000/svg">
<rect x="4" y="4" width="16" height="16" rx="3" stroke="#D1D1D1" stroke-width="2"/>
<path d="M36.644 11.6C36.644 10.8907 36.7747 10.228 37.036 9.612C37.2973 8.98667 37.652 8.44533 38.1 7.988C38.5573 7.53067 39.094 7.17133 39.71 6.91C40.326 6.64867 40.9887 6.518 41.698 6.518C42.174 6.518 42.6313 6.588 43.07 6.728C43.518 6.85867 43.952 7.05467 44.372 7.316V9.122C43.9427 8.79533 43.5133 8.55267 43.084 8.394C42.6547 8.23533 42.1973 8.156 41.712 8.156C41.236 8.156 40.7927 8.24467 40.382 8.422C39.9807 8.59933 39.6307 8.842 39.332 9.15C39.0333 9.458 38.8 9.822 38.632 10.242C38.464 10.662 38.38 11.1147 38.38 11.6C38.38 12.076 38.464 12.524 38.632 12.944C38.8 13.3547 39.0333 13.7187 39.332 14.036C39.6307 14.344 39.9807 14.5867 40.382 14.764C40.7927 14.9413 41.236 15.03 41.712 15.03C42.188 15.03 42.6453 14.9507 43.084 14.792C43.5227 14.6333 43.9613 14.4 44.4 14.092V15.898C43.952 16.1687 43.4993 16.3647 43.042 16.486C42.5847 16.6073 42.132 16.668 41.684 16.668C40.9747 16.668 40.312 16.542 39.696 16.29C39.0893 16.0287 38.5573 15.6693 38.1 15.212C37.652 14.7547 37.2973 14.218 37.036 13.602C36.7747 12.986 36.644 12.3187 36.644 11.6ZM47.6281 16.5H46.0041V6.7H47.6281V10.55C47.8428 10.2233 48.1228 9.962 48.4681 9.766C48.8228 9.57 49.2428 9.472 49.7281 9.472C50.5681 9.472 51.2214 9.73333 51.6881 10.256C52.1548 10.7693 52.3881 11.474 52.3881 12.37V16.5H50.7641V12.678C50.7641 12.146 50.6334 11.7307 50.3721 11.432C50.1108 11.124 49.7328 10.97 49.2381 10.97C48.7528 10.97 48.3608 11.1427 48.0621 11.488C47.7728 11.8333 47.6281 12.3 47.6281 12.888V16.5ZM60.5326 14.89C60.2433 15.4313 59.8373 15.8653 59.3146 16.192C58.7919 16.5093 58.1666 16.668 57.4386 16.668C56.9159 16.668 56.4353 16.5793 55.9966 16.402C55.5579 16.2247 55.1799 15.9773 54.8626 15.66C54.5546 15.3427 54.3119 14.9647 54.1346 14.526C53.9573 14.0873 53.8686 13.602 53.8686 13.07C53.8686 12.5567 53.9573 12.0807 54.1346 11.642C54.3119 11.2033 54.5546 10.8253 54.8626 10.508C55.1799 10.1813 55.5486 9.92933 55.9686 9.752C56.3979 9.56533 56.8599 9.472 57.3546 9.472C57.8586 9.472 58.3159 9.56533 58.7266 9.752C59.1466 9.92933 59.5059 10.1813 59.8046 10.508C60.1126 10.8253 60.3506 11.2033 60.5186 11.642C60.6866 12.0807 60.7706 12.5567 60.7706 13.07C60.7706 13.2007 60.7659 13.364 60.7566 13.56H55.4786C55.4973 13.812 55.5626 14.0453 55.6746 14.26C55.7866 14.4653 55.9313 14.6473 56.1086 14.806C56.2859 14.9553 56.4913 15.0767 56.7246 15.17C56.9579 15.254 57.2006 15.296 57.4526 15.296C57.9006 15.296 58.2553 15.198 58.5166 15.002C58.7779 14.806 59.0066 14.5587 59.2026 14.26L60.5326 14.89ZM59.1606 12.384C59.1326 12.16 59.0673 11.95 58.9646 11.754C58.8619 11.558 58.7313 11.39 58.5726 11.25C58.4139 11.11 58.2273 11.0027 58.0126 10.928C57.7979 10.844 57.5693 10.802 57.3266 10.802C57.0839 10.802 56.8553 10.8487 56.6406 10.942C56.4353 11.0353 56.2486 11.1567 56.0806 11.306C55.9219 11.446 55.7913 11.614 55.6886 11.81C55.5859 11.9967 55.5206 12.188 55.4926 12.384H59.1606ZM61.8256 13.07C61.8256 12.5567 61.9143 12.0807 62.0916 11.642C62.269 11.2033 62.5163 10.8253 62.8336 10.508C63.1603 10.1813 63.543 9.92933 63.9816 9.752C64.4296 9.56533 64.9196 9.472 65.4516 9.472C66.133 9.472 66.7443 9.63533 67.2856 9.962V11.572C66.7443 11.1613 66.1796 10.956 65.5916 10.956C65.2836 10.956 64.999 11.012 64.7376 11.124C64.4856 11.2267 64.2616 11.376 64.0656 11.572C63.879 11.7587 63.7296 11.9827 63.6176 12.244C63.515 12.496 63.4636 12.7713 63.4636 13.07C63.4636 13.3687 63.515 13.6487 63.6176 13.91C63.7296 14.162 63.879 14.386 64.0656 14.582C64.2523 14.7687 64.4763 14.918 64.7376 15.03C64.999 15.1327 65.2836 15.184 65.5916 15.184C65.9183 15.184 66.2263 15.1233 66.5156 15.002C66.805 14.8807 67.071 14.736 67.3136 14.568V16.178C66.735 16.5047 66.1096 16.668 65.4376 16.668C64.9056 16.668 64.4156 16.5793 63.9676 16.402C63.529 16.2247 63.151 15.9773 62.8336 15.66C62.5163 15.3333 62.269 14.9507 62.0916 14.512C61.9143 14.0733 61.8256 13.5927 61.8256 13.07ZM75.0511 9.64L72.0691 12.622L75.2751 16.5H73.2871L70.8371 13.462L70.4871 13.784V16.5H68.8771V6.7H70.4871V12.23L73.0631 9.64H75.0511ZM76.383 16.5V6.7H77.993V10.62C78.245 10.2653 78.5763 9.98533 78.987 9.78C79.3977 9.57467 79.841 9.472 80.317 9.472C80.793 9.472 81.2317 9.56533 81.633 9.752C82.0437 9.92933 82.3983 10.1813 82.697 10.508C82.9957 10.8253 83.229 11.2033 83.397 11.642C83.5743 12.0807 83.663 12.5567 83.663 13.07C83.663 13.574 83.5743 14.0453 83.397 14.484C83.229 14.9227 82.9957 15.3053 82.697 15.632C82.3983 15.9493 82.0437 16.2013 81.633 16.388C81.2317 16.5747 80.793 16.668 80.317 16.668C79.841 16.668 79.3977 16.5747 78.987 16.388C78.5763 16.192 78.245 15.9167 77.993 15.562V16.5H76.383ZM82.039 13.07C82.039 12.7713 81.983 12.496 81.871 12.244C81.7683 11.9827 81.6237 11.7587 81.437 11.572C81.2597 11.376 81.045 11.222 80.793 11.11C80.541 10.998 80.2703 10.942 79.981 10.942C79.6917 10.942 79.421 10.998 79.169 11.11C78.917 11.222 78.6977 11.376 78.511 11.572C78.3337 11.7587 78.189 11.9827 78.077 12.244C77.9743 12.496 77.923 12.7713 77.923 13.07C77.923 13.3687 77.9743 13.6487 78.077 13.91C78.189 14.162 78.3337 14.386 78.511 14.582C78.6977 14.7687 78.917 14.918 79.169 15.03C79.421 15.142 79.6917 15.198 79.981 15.198C80.2703 15.198 80.541 15.142 80.793 15.03C81.045 14.918 81.2597 14.7687 81.437 14.582C81.6237 14.386 81.7683 14.162 81.871 13.91C81.983 13.6487 82.039 13.3687 82.039 13.07ZM88.4347 9.472C88.9574 9.472 89.4427 9.56533 89.8907 9.752C90.3387 9.93867 90.726 10.1953 91.0527 10.522C91.3794 10.8393 91.6314 11.2173 91.8087 11.656C91.9954 12.0947 92.0887 12.566 92.0887 13.07C92.0887 13.574 91.9954 14.0453 91.8087 14.484C91.6314 14.9227 91.3794 15.3053 91.0527 15.632C90.726 15.9493 90.3387 16.2013 89.8907 16.388C89.4427 16.5747 88.9574 16.668 88.4347 16.668C87.912 16.668 87.4267 16.5747 86.9787 16.388C86.5307 16.2013 86.1434 15.9493 85.8167 15.632C85.49 15.3053 85.2334 14.9227 85.0467 14.484C84.8694 14.0453 84.7807 13.574 84.7807 13.07C84.7807 12.566 84.8694 12.0947 85.0467 11.656C85.2334 11.2173 85.49 10.8393 85.8167 10.522C86.1434 10.1953 86.5307 9.93867 86.9787 9.752C87.4267 9.56533 87.912 9.472 88.4347 9.472ZM88.4347 10.956C88.1454 10.956 87.8747 11.012 87.6227 11.124C87.38 11.236 87.1654 11.3853 86.9787 11.572C86.8014 11.7587 86.6567 11.9827 86.5447 12.244C86.442 12.5053 86.3907 12.7807 86.3907 13.07C86.3907 13.3687 86.442 13.6487 86.5447 13.91C86.6567 14.162 86.8014 14.3813 86.9787 14.568C87.1654 14.7547 87.38 14.904 87.6227 15.016C87.8747 15.128 88.1454 15.184 88.4347 15.184C88.724 15.184 88.99 15.128 89.2327 15.016C89.4847 14.904 89.6994 14.7547 89.8767 14.568C90.0634 14.3813 90.208 14.162 90.3107 13.91C90.4227 13.6487 90.4787 13.3687 90.4787 13.07C90.4787 12.7807 90.4227 12.5053 90.3107 12.244C90.208 11.9827 90.0634 11.7587 89.8767 11.572C89.6994 11.3853 89.4847 11.236 89.2327 11.124C88.99 11.012 88.724 10.956 88.4347 10.956ZM96.3106 14.148L94.6446 16.5H92.8386L95.3866 13.014L92.9506 9.64H94.8126L96.3526 11.838L97.9066 9.64H99.7406L97.2906 12.972L99.8386 16.5H97.9626L96.3106 14.148ZM106.217 6.7V14.932H109.661V16.5H104.537V6.7H106.217ZM117.777 9.64V16.5H116.181V15.506C115.929 15.8607 115.598 16.1453 115.187 16.36C114.777 16.5653 114.333 16.668 113.857 16.668C113.381 16.668 112.938 16.5747 112.527 16.388C112.126 16.2013 111.776 15.9493 111.477 15.632C111.179 15.3053 110.941 14.9227 110.763 14.484C110.595 14.0453 110.511 13.574 110.511 13.07C110.511 12.566 110.595 12.0947 110.763 11.656C110.941 11.2173 111.179 10.8393 111.477 10.522C111.776 10.1953 112.126 9.93867 112.527 9.752C112.938 9.56533 113.381 9.472 113.857 9.472C114.333 9.472 114.777 9.57 115.187 9.766C115.598 9.95267 115.929 10.2233 116.181 10.578V9.64H117.777ZM112.135 13.07C112.135 13.3687 112.187 13.6487 112.289 13.91C112.401 14.162 112.546 14.386 112.723 14.582C112.91 14.7687 113.129 14.918 113.381 15.03C113.633 15.142 113.904 15.198 114.193 15.198C114.483 15.198 114.753 15.142 115.005 15.03C115.257 14.918 115.472 14.7687 115.649 14.582C115.836 14.386 115.981 14.162 116.083 13.91C116.195 13.6487 116.251 13.3687 116.251 13.07C116.251 12.7713 116.195 12.496 116.083 12.244C115.981 11.9827 115.836 11.7587 115.649 11.572C115.472 11.376 115.257 11.222 115.005 11.11C114.753 10.998 114.483 10.942 114.193 10.942C113.904 10.942 113.633 10.998 113.381 11.11C113.129 11.222 112.91 11.376 112.723 11.572C112.546 11.7587 112.401 11.9827 112.289 12.244C112.187 12.496 112.135 12.7713 112.135 13.07ZM119.805 16.5V6.7H121.415V10.62C121.667 10.2653 121.998 9.98533 122.409 9.78C122.82 9.57467 123.263 9.472 123.739 9.472C124.215 9.472 124.654 9.56533 125.055 9.752C125.466 9.92933 125.82 10.1813 126.119 10.508C126.418 10.8253 126.651 11.2033 126.819 11.642C126.996 12.0807 127.085 12.5567 127.085 13.07C127.085 13.574 126.996 14.0453 126.819 14.484C126.651 14.9227 126.418 15.3053 126.119 15.632C125.82 15.9493 125.466 16.2013 125.055 16.388C124.654 16.5747 124.215 16.668 123.739 16.668C123.263 16.668 122.82 16.5747 122.409 16.388C121.998 16.192 121.667 15.9167 121.415 15.562V16.5H119.805ZM125.461 13.07C125.461 12.7713 125.405 12.496 125.293 12.244C125.19 11.9827 125.046 11.7587 124.859 11.572C124.682 11.376 124.467 11.222 124.215 11.11C123.963 10.998 123.692 10.942 123.403 10.942C123.114 10.942 122.843 10.998 122.591 11.11C122.339 11.222 122.12 11.376 121.933 11.572C121.756 11.7587 121.611 11.9827 121.499 12.244C121.396 12.496 121.345 12.7713 121.345 13.07C121.345 13.3687 121.396 13.6487 121.499 13.91C121.611 14.162 121.756 14.386 121.933 14.582C122.12 14.7687 122.339 14.918 122.591 15.03C122.843 15.142 123.114 15.198 123.403 15.198C123.692 15.198 123.963 15.142 124.215 15.03C124.467 14.918 124.682 14.7687 124.859 14.582C125.046 14.386 125.19 14.162 125.293 13.91C125.405 13.6487 125.461 13.3687 125.461 13.07ZM134.867 14.89C134.577 15.4313 134.171 15.8653 133.649 16.192C133.126 16.5093 132.501 16.668 131.773 16.668C131.25 16.668 130.769 16.5793 130.331 16.402C129.892 16.2247 129.514 15.9773 129.197 15.66C128.889 15.3427 128.646 14.9647 128.469 14.526C128.291 14.0873 128.203 13.602 128.203 13.07C128.203 12.5567 128.291 12.0807 128.469 11.642C128.646 11.2033 128.889 10.8253 129.197 10.508C129.514 10.1813 129.883 9.92933 130.303 9.752C130.732 9.56533 131.194 9.472 131.689 9.472C132.193 9.472 132.65 9.56533 133.061 9.752C133.481 9.92933 133.84 10.1813 134.139 10.508C134.447 10.8253 134.685 11.2033 134.853 11.642C135.021 12.0807 135.105 12.5567 135.105 13.07C135.105 13.2007 135.1 13.364 135.091 13.56H129.813C129.831 13.812 129.897 14.0453 130.009 14.26C130.121 14.4653 130.265 14.6473 130.443 14.806C130.62 14.9553 130.825 15.0767 131.059 15.17C131.292 15.254 131.535 15.296 131.787 15.296C132.235 15.296 132.589 15.198 132.851 15.002C133.112 14.806 133.341 14.5587 133.537 14.26L134.867 14.89ZM133.495 12.384C133.467 12.16 133.401 11.95 133.299 11.754C133.196 11.558 133.065 11.39 132.907 11.25C132.748 11.11 132.561 11.0027 132.347 10.928C132.132 10.844 131.903 10.802 131.661 10.802C131.418 10.802 131.189 10.8487 130.975 10.942C130.769 11.0353 130.583 11.1567 130.415 11.306C130.256 11.446 130.125 11.614 130.023 11.81C129.92 11.9967 129.855 12.188 129.827 12.384H133.495ZM138.232 6.7V16.5H136.608V6.7H138.232Z" fill="#565656"/>
</svg>
