<svg width="89" height="26" viewBox="0 0 89 26" fill="none" xmlns="http://www.w3.org/2000/svg">
<rect width="89" height="26" rx="4" fill="#E6F5ED"/>
<rect x="8" y="9" width="8" height="8" rx="4" fill="#03964D"/>
<path d="M24.552 13.3C24.552 12.692 24.664 12.124 24.888 11.596C25.112 11.06 25.416 10.596 25.8 10.204C26.192 9.812 26.652 9.504 27.18 9.28C27.708 9.056 28.276 8.944 28.884 8.944C29.292 8.944 29.684 9.004 30.06 9.124C30.444 9.236 30.816 9.404 31.176 9.628V11.176C30.808 10.896 30.44 10.688 30.072 10.552C29.704 10.416 29.312 10.348 28.896 10.348C28.488 10.348 28.108 10.424 27.756 10.576C27.412 10.728 27.112 10.936 26.856 11.2C26.6 11.464 26.4 11.776 26.256 12.136C26.112 12.496 26.04 12.884 26.04 13.3C26.04 13.708 26.112 14.092 26.256 14.452C26.4 14.804 26.6 15.116 26.856 15.388C27.112 15.652 27.412 15.86 27.756 16.012C28.108 16.164 28.488 16.24 28.896 16.24C29.304 16.24 29.696 16.172 30.072 16.036C30.448 15.9 30.824 15.7 31.2 15.436V16.984C30.816 17.216 30.428 17.384 30.036 17.488C29.644 17.592 29.256 17.644 28.872 17.644C28.264 17.644 27.696 17.536 27.168 17.32C26.648 17.096 26.192 16.788 25.8 16.396C25.416 16.004 25.112 15.544 24.888 15.016C24.664 14.488 24.552 13.916 24.552 13.3ZM33.9669 17.5H32.5749V9.1H33.9669V12.4C34.1509 12.12 34.3909 11.896 34.6869 11.728C34.9909 11.56 35.3509 11.476 35.7669 11.476C36.4869 11.476 37.0469 11.7 37.4469 12.148C37.8469 12.588 38.0469 13.192 38.0469 13.96V17.5H36.6549V14.224C36.6549 13.768 36.5429 13.412 36.3189 13.156C36.0949 12.892 35.7709 12.76 35.3469 12.76C34.9309 12.76 34.5949 12.908 34.3389 13.204C34.0909 13.5 33.9669 13.9 33.9669 14.404V17.5ZM39.6999 17.5V11.62H41.0919V17.5H39.6999ZM41.2479 9.904C41.2479 10.136 41.1639 10.336 40.9959 10.504C40.8359 10.672 40.6319 10.756 40.3839 10.756C40.1519 10.756 39.9519 10.672 39.7839 10.504C39.6159 10.336 39.5319 10.136 39.5319 9.904C39.5319 9.664 39.6159 9.46 39.7839 9.292C39.9519 9.124 40.1519 9.04 40.3839 9.04C40.6319 9.04 40.8359 9.128 40.9959 9.304C41.1639 9.472 41.2479 9.672 41.2479 9.904ZM44.1971 11.62V12.46C44.4131 12.156 44.6971 11.916 45.0491 11.74C45.4011 11.564 45.7811 11.476 46.1891 11.476C46.5971 11.476 46.9731 11.556 47.3171 11.716C47.6691 11.868 47.9731 12.084 48.2291 12.364C48.4851 12.636 48.6851 12.96 48.8291 13.336C48.9811 13.712 49.0571 14.12 49.0571 14.56C49.0571 14.992 48.9811 15.396 48.8291 15.772C48.6851 16.148 48.4851 16.476 48.2291 16.756C47.9731 17.028 47.6691 17.244 47.3171 17.404C46.9731 17.564 46.5971 17.644 46.1891 17.644C45.7811 17.644 45.4011 17.564 45.0491 17.404C44.6971 17.236 44.4131 17 44.1971 16.696V19.996H42.8171V11.62H44.1971ZM47.6651 14.56C47.6651 14.304 47.6171 14.068 47.5211 13.852C47.4331 13.628 47.3091 13.436 47.1491 13.276C46.9971 13.108 46.8131 12.976 46.5971 12.88C46.3811 12.784 46.1491 12.736 45.9011 12.736C45.6531 12.736 45.4211 12.784 45.2051 12.88C44.9891 12.976 44.8011 13.108 44.6411 13.276C44.4891 13.436 44.3651 13.628 44.2691 13.852C44.1811 14.068 44.1371 14.304 44.1371 14.56C44.1371 14.816 44.1811 15.056 44.2691 15.28C44.3651 15.496 44.4891 15.688 44.6411 15.856C44.8011 16.016 44.9891 16.144 45.2051 16.24C45.4211 16.336 45.6531 16.384 45.9011 16.384C46.1491 16.384 46.3811 16.336 46.5971 16.24C46.8131 16.144 46.9971 16.016 47.1491 15.856C47.3091 15.688 47.4331 15.496 47.5211 15.28C47.6171 15.056 47.6651 14.816 47.6651 14.56ZM52.6343 9.1H58.7422V10.432H56.4143V17.5H54.9623V10.432H52.6343V9.1ZM65.1608 16.12C64.9128 16.584 64.5648 16.956 64.1168 17.236C63.6688 17.508 63.1328 17.644 62.5088 17.644C62.0608 17.644 61.6488 17.568 61.2728 17.416C60.8968 17.264 60.5728 17.052 60.3008 16.78C60.0368 16.508 59.8288 16.184 59.6768 15.808C59.5248 15.432 59.4488 15.016 59.4488 14.56C59.4488 14.12 59.5248 13.712 59.6768 13.336C59.8288 12.96 60.0368 12.636 60.3008 12.364C60.5728 12.084 60.8888 11.868 61.2488 11.716C61.6168 11.556 62.0128 11.476 62.4368 11.476C62.8688 11.476 63.2608 11.556 63.6128 11.716C63.9728 11.868 64.2808 12.084 64.5368 12.364C64.8008 12.636 65.0048 12.96 65.1488 13.336C65.2928 13.712 65.3648 14.12 65.3648 14.56C65.3648 14.672 65.3608 14.812 65.3528 14.98H60.8288C60.8448 15.196 60.9008 15.396 60.9968 15.58C61.0928 15.756 61.2168 15.912 61.3688 16.048C61.5208 16.176 61.6968 16.28 61.8968 16.36C62.0968 16.432 62.3048 16.468 62.5208 16.468C62.9048 16.468 63.2088 16.384 63.4328 16.216C63.6568 16.048 63.8528 15.836 64.0208 15.58L65.1608 16.12ZM63.9848 13.972C63.9608 13.78 63.9048 13.6 63.8168 13.432C63.7288 13.264 63.6168 13.12 63.4808 13C63.3448 12.88 63.1848 12.788 63.0008 12.724C62.8168 12.652 62.6208 12.616 62.4128 12.616C62.2048 12.616 62.0088 12.656 61.8248 12.736C61.6488 12.816 61.4888 12.92 61.3448 13.048C61.2088 13.168 61.0968 13.312 61.0088 13.48C60.9208 13.64 60.8648 13.804 60.8408 13.972H63.9848ZM68.9331 15.484L67.5051 17.5H65.9571L68.1411 14.512L66.0531 11.62H67.6491L68.9691 13.504L70.3011 11.62H71.8731L69.7731 14.476L71.9571 17.5H70.3491L68.9331 15.484ZM74.6249 9.88V11.62H76.1849V12.796H74.6249V15.436C74.6249 15.764 74.6969 16.004 74.8409 16.156C74.9929 16.3 75.2249 16.372 75.5369 16.372C75.6489 16.372 75.7609 16.36 75.8729 16.336C75.9929 16.304 76.0969 16.256 76.1849 16.192V17.428C76.0729 17.492 75.9289 17.544 75.7529 17.584C75.5769 17.624 75.3689 17.644 75.1289 17.644C74.5369 17.644 74.0729 17.472 73.7369 17.128C73.4089 16.784 73.2449 16.304 73.2449 15.688V12.796H72.3689V11.62H73.2449V9.88H74.6249Z" fill="#17172A"/>
</svg>
