<svg width="300" height="64" viewBox="0 0 300 64" fill="none" xmlns="http://www.w3.org/2000/svg">
<path d="M2.424 4.6V11.656H5.376V13H0.984V4.6H2.424ZM12.333 7.12V13H10.965V12.148C10.749 12.452 10.465 12.696 10.113 12.88C9.761 13.056 9.381 13.144 8.973 13.144C8.565 13.144 8.185 13.064 7.833 12.904C7.489 12.744 7.189 12.528 6.933 12.256C6.677 11.976 6.473 11.648 6.321 11.272C6.177 10.896 6.105 10.492 6.105 10.06C6.105 9.628 6.177 9.224 6.321 8.848C6.473 8.472 6.677 8.148 6.933 7.876C7.189 7.596 7.489 7.376 7.833 7.216C8.185 7.056 8.565 6.976 8.973 6.976C9.381 6.976 9.761 7.06 10.113 7.228C10.465 7.388 10.749 7.62 10.965 7.924V7.12H12.333ZM7.497 10.06C7.497 10.316 7.541 10.556 7.629 10.78C7.725 10.996 7.849 11.188 8.001 11.356C8.161 11.516 8.349 11.644 8.565 11.74C8.781 11.836 9.013 11.884 9.261 11.884C9.509 11.884 9.741 11.836 9.957 11.74C10.173 11.644 10.357 11.516 10.509 11.356C10.669 11.188 10.793 10.996 10.881 10.78C10.977 10.556 11.025 10.316 11.025 10.06C11.025 9.804 10.977 9.568 10.881 9.352C10.793 9.128 10.669 8.936 10.509 8.776C10.357 8.608 10.173 8.476 9.957 8.38C9.741 8.284 9.509 8.236 9.261 8.236C9.013 8.236 8.781 8.284 8.565 8.38C8.349 8.476 8.161 8.608 8.001 8.776C7.849 8.936 7.725 9.128 7.629 9.352C7.541 9.568 7.497 9.804 7.497 10.06ZM14.071 13V4.6H15.451V7.96C15.667 7.656 15.951 7.416 16.303 7.24C16.655 7.064 17.035 6.976 17.443 6.976C17.851 6.976 18.227 7.056 18.571 7.216C18.923 7.368 19.227 7.584 19.483 7.864C19.739 8.136 19.939 8.46 20.083 8.836C20.235 9.212 20.311 9.62 20.311 10.06C20.311 10.492 20.235 10.896 20.083 11.272C19.939 11.648 19.739 11.976 19.483 12.256C19.227 12.528 18.923 12.744 18.571 12.904C18.227 13.064 17.851 13.144 17.443 13.144C17.035 13.144 16.655 13.064 16.303 12.904C15.951 12.736 15.667 12.5 15.451 12.196V13H14.071ZM18.919 10.06C18.919 9.804 18.871 9.568 18.775 9.352C18.687 9.128 18.563 8.936 18.403 8.776C18.251 8.608 18.067 8.476 17.851 8.38C17.635 8.284 17.403 8.236 17.155 8.236C16.907 8.236 16.675 8.284 16.459 8.38C16.243 8.476 16.055 8.608 15.895 8.776C15.743 8.936 15.619 9.128 15.523 9.352C15.435 9.568 15.391 9.804 15.391 10.06C15.391 10.316 15.435 10.556 15.523 10.78C15.619 10.996 15.743 11.188 15.895 11.356C16.055 11.516 16.243 11.644 16.459 11.74C16.675 11.836 16.907 11.884 17.155 11.884C17.403 11.884 17.635 11.836 17.851 11.74C18.067 11.644 18.251 11.516 18.403 11.356C18.563 11.188 18.687 10.996 18.775 10.78C18.871 10.556 18.919 10.316 18.919 10.06ZM26.9811 11.62C26.7331 12.084 26.3851 12.456 25.9371 12.736C25.4891 13.008 24.9531 13.144 24.3291 13.144C23.8811 13.144 23.4691 13.068 23.0931 12.916C22.7171 12.764 22.3931 12.552 22.1211 12.28C21.8571 12.008 21.6491 11.684 21.4971 11.308C21.3451 10.932 21.2691 10.516 21.2691 10.06C21.2691 9.62 21.3451 9.212 21.4971 8.836C21.6491 8.46 21.8571 8.136 22.1211 7.864C22.3931 7.584 22.7091 7.368 23.0691 7.216C23.4371 7.056 23.8331 6.976 24.2571 6.976C24.6891 6.976 25.0811 7.056 25.4331 7.216C25.7931 7.368 26.1011 7.584 26.3571 7.864C26.6211 8.136 26.8251 8.46 26.9691 8.836C27.1131 9.212 27.1851 9.62 27.1851 10.06C27.1851 10.172 27.1811 10.312 27.1731 10.48H22.6491C22.6651 10.696 22.7211 10.896 22.8171 11.08C22.9131 11.256 23.0371 11.412 23.1891 11.548C23.3411 11.676 23.5171 11.78 23.7171 11.86C23.9171 11.932 24.1251 11.968 24.3411 11.968C24.7251 11.968 25.0291 11.884 25.2531 11.716C25.4771 11.548 25.6731 11.336 25.8411 11.08L26.9811 11.62ZM25.8051 9.472C25.7811 9.28 25.7251 9.1 25.6371 8.932C25.5491 8.764 25.4371 8.62 25.3011 8.5C25.1651 8.38 25.0051 8.288 24.8211 8.224C24.6371 8.152 24.4411 8.116 24.2331 8.116C24.0251 8.116 23.8291 8.156 23.6451 8.236C23.4691 8.316 23.3091 8.42 23.1651 8.548C23.0291 8.668 22.9171 8.812 22.8291 8.98C22.7411 9.14 22.6851 9.304 22.6611 9.472H25.8051ZM29.8654 4.6V13H28.4734V4.6H29.8654Z" fill="#565656"/>
<mask id="path-2-inside-1_6551_2432" fill="white">
<path d="M0 34C0 27.3726 5.37258 22 12 22H100V64H12C5.37258 64 0 58.6274 0 52V34Z"/>
</mask>
<path d="M0 34C0 27.3726 5.37258 22 12 22H100V64H12C5.37258 64 0 58.6274 0 52V34Z" fill="#F4F4F4"/>
<path d="M-1 34C-1 26.8203 4.8203 21 12 21H100V23H12C5.92487 23 1 27.9249 1 34H-1ZM100 65H12C4.8203 65 -1 59.1797 -1 52H1C1 58.0751 5.92487 63 12 63H100V65ZM12 65C4.8203 65 -1 59.1797 -1 52V34C-1 26.8203 4.8203 21 12 21V23C5.92487 23 1 27.9249 1 34V52C1 58.0751 5.92487 63 12 63V65ZM100 22V64V22Z" fill="#E1E1E1" mask="url(#path-2-inside-1_6551_2432)"/>
<path d="M16.858 47.668C16.2513 47.668 15.71 47.57 15.234 47.374C14.758 47.178 14.3567 46.9027 14.03 46.548C13.7033 46.1933 13.4513 45.7687 13.274 45.274C13.106 44.77 13.022 44.2147 13.022 43.608V37.7H14.702V43.538C14.702 44.294 14.884 44.9007 15.248 45.358C15.6213 45.8153 16.158 46.044 16.858 46.044C17.558 46.044 18.09 45.8153 18.454 45.358C18.8273 44.9007 19.014 44.294 19.014 43.538V37.7H20.694V43.608C20.694 44.2147 20.6053 44.77 20.428 45.274C20.26 45.7687 20.0127 46.1933 19.686 46.548C19.3593 46.9027 18.958 47.178 18.482 47.374C18.006 47.57 17.4647 47.668 16.858 47.668ZM23.6667 44.518C23.844 44.994 24.1054 45.3767 24.4507 45.666C24.8054 45.946 25.23 46.086 25.7247 46.086C26.1447 46.086 26.5087 45.9787 26.8167 45.764C27.1247 45.54 27.2787 45.218 27.2787 44.798C27.2787 44.1913 26.868 43.7387 26.0467 43.44L24.8847 43.02C24.1567 42.7587 23.592 42.4087 23.1907 41.97C22.7894 41.5313 22.5887 40.976 22.5887 40.304C22.5887 39.884 22.6634 39.5013 22.8127 39.156C22.9714 38.8107 23.186 38.5167 23.4567 38.274C23.7367 38.0313 24.0587 37.8447 24.4227 37.714C24.796 37.5833 25.1974 37.518 25.6267 37.518C26.336 37.5273 26.9707 37.7233 27.5307 38.106C28.0907 38.4793 28.506 39.0067 28.7767 39.688L27.3347 40.416C27.1854 40.0427 26.9707 39.73 26.6907 39.478C26.4107 39.2167 26.0607 39.086 25.6407 39.086C25.2487 39.086 24.9267 39.1887 24.6747 39.394C24.4227 39.5993 24.2967 39.87 24.2967 40.206C24.2967 40.5047 24.3994 40.752 24.6047 40.948C24.81 41.1347 25.1134 41.3073 25.5147 41.466L26.7187 41.928C27.484 42.2267 28.0534 42.6 28.4267 43.048C28.8094 43.4867 29.0007 44.0327 29.0007 44.686C29.0007 45.1527 28.912 45.5727 28.7347 45.946C28.5574 46.31 28.3194 46.6227 28.0207 46.884C27.722 47.136 27.372 47.332 26.9707 47.472C26.5694 47.6027 26.1447 47.668 25.6967 47.668C24.8754 47.668 24.152 47.458 23.5267 47.038C22.9014 46.6087 22.4534 46.002 22.1827 45.218L23.6667 44.518ZM38.782 42.6C38.782 43.2907 38.6513 43.9347 38.39 44.532C38.138 45.1293 37.788 45.6473 37.34 46.086C36.892 46.5247 36.3693 46.87 35.772 47.122C35.1747 47.374 34.5353 47.5 33.854 47.5H30.648V37.7H33.854C34.5353 37.7 35.1747 37.826 35.772 38.078C36.3693 38.33 36.892 38.6753 37.34 39.114C37.788 39.5527 38.138 40.0707 38.39 40.668C38.6513 41.2653 38.782 41.9093 38.782 42.6ZM37.06 42.6C37.06 42.1333 36.976 41.6993 36.808 41.298C36.6493 40.8873 36.4253 40.5327 36.136 40.234C35.8467 39.9353 35.5013 39.702 35.1 39.534C34.708 39.3567 34.2787 39.268 33.812 39.268H32.328V45.932H33.812C34.2787 45.932 34.708 45.848 35.1 45.68C35.5013 45.5027 35.8467 45.2647 36.136 44.966C36.4253 44.6673 36.6493 44.3173 36.808 43.916C36.976 43.5053 37.06 43.0667 37.06 42.6Z" fill="#17172A"/>
<path d="M78.5352 46.7148L73.2852 41.4648C73.0117 41.2188 73.0117 40.8086 73.2852 40.5352C73.5312 40.2891 73.9414 40.2891 74.2148 40.5352L79 45.3477L83.7852 40.5625C84.0312 40.2891 84.4414 40.2891 84.7148 40.5625C84.9609 40.8086 84.9609 41.2188 84.7148 41.4648L79.4375 46.7148C79.1914 46.9883 78.7812 46.9883 78.5352 46.7148Z" fill="#17172A"/>
<mask id="path-6-inside-2_6551_2432" fill="white">
<path d="M100 22H288C294.627 22 300 27.3726 300 34V52C300 58.6274 294.627 64 288 64H100V22Z"/>
</mask>
<path d="M100 22H288C294.627 22 300 27.3726 300 34V52C300 58.6274 294.627 64 288 64H100V22Z" fill="white"/>
<path d="M100 22V21H99V22H100ZM100 64H99V65H100V64ZM100 23H288V21H100V23ZM299 34V52H301V34H299ZM288 63H100V65H288V63ZM101 64V22H99V64H101ZM299 52C299 58.0751 294.075 63 288 63V65C295.18 65 301 59.1797 301 52H299ZM288 23C294.075 23 299 27.9249 299 34H301C301 26.8203 295.18 21 288 21V23Z" fill="#AEAEAE" mask="url(#path-6-inside-2_6551_2432)"/>
<path d="M119.84 42.184C119.84 42.9493 119.756 43.64 119.588 44.256C119.42 44.8627 119.177 45.3853 118.86 45.824C118.543 46.2533 118.16 46.5847 117.712 46.818C117.264 47.0513 116.76 47.168 116.2 47.168C115.64 47.168 115.136 47.0513 114.688 46.818C114.24 46.5847 113.857 46.2533 113.54 45.824C113.223 45.3853 112.98 44.8627 112.812 44.256C112.644 43.64 112.56 42.9493 112.56 42.184C112.56 41.428 112.644 40.742 112.812 40.126C112.98 39.51 113.223 38.9873 113.54 38.558C113.857 38.1287 114.24 37.7973 114.688 37.564C115.136 37.3307 115.64 37.214 116.2 37.214C116.76 37.214 117.264 37.3307 117.712 37.564C118.16 37.7973 118.543 38.1287 118.86 38.558C119.177 38.9873 119.42 39.51 119.588 40.126C119.756 40.742 119.84 41.428 119.84 42.184ZM118.188 42.184C118.188 41.1107 118.011 40.2753 117.656 39.678C117.301 39.0807 116.816 38.782 116.2 38.782C115.584 38.782 115.099 39.0807 114.744 39.678C114.389 40.2753 114.212 41.1107 114.212 42.184C114.212 43.2573 114.389 44.0973 114.744 44.704C115.099 45.3013 115.584 45.6 116.2 45.6C116.816 45.6 117.301 45.3013 117.656 44.704C118.011 44.0973 118.188 43.2573 118.188 42.184Z" fill="#17172A"/>
</svg>
