<svg width="300" height="64" viewBox="0 0 300 64" fill="none" xmlns="http://www.w3.org/2000/svg">
<path d="M2.424 4.6V11.656H5.376V13H0.984V4.6H2.424ZM12.333 7.12V13H10.965V12.148C10.749 12.452 10.465 12.696 10.113 12.88C9.761 13.056 9.381 13.144 8.973 13.144C8.565 13.144 8.185 13.064 7.833 12.904C7.489 12.744 7.189 12.528 6.933 12.256C6.677 11.976 6.473 11.648 6.321 11.272C6.177 10.896 6.105 10.492 6.105 10.06C6.105 9.628 6.177 9.224 6.321 8.848C6.473 8.472 6.677 8.148 6.933 7.876C7.189 7.596 7.489 7.376 7.833 7.216C8.185 7.056 8.565 6.976 8.973 6.976C9.381 6.976 9.761 7.06 10.113 7.228C10.465 7.388 10.749 7.62 10.965 7.924V7.12H12.333ZM7.497 10.06C7.497 10.316 7.541 10.556 7.629 10.78C7.725 10.996 7.849 11.188 8.001 11.356C8.161 11.516 8.349 11.644 8.565 11.74C8.781 11.836 9.013 11.884 9.261 11.884C9.509 11.884 9.741 11.836 9.957 11.74C10.173 11.644 10.357 11.516 10.509 11.356C10.669 11.188 10.793 10.996 10.881 10.78C10.977 10.556 11.025 10.316 11.025 10.06C11.025 9.804 10.977 9.568 10.881 9.352C10.793 9.128 10.669 8.936 10.509 8.776C10.357 8.608 10.173 8.476 9.957 8.38C9.741 8.284 9.509 8.236 9.261 8.236C9.013 8.236 8.781 8.284 8.565 8.38C8.349 8.476 8.161 8.608 8.001 8.776C7.849 8.936 7.725 9.128 7.629 9.352C7.541 9.568 7.497 9.804 7.497 10.06ZM14.071 13V4.6H15.451V7.96C15.667 7.656 15.951 7.416 16.303 7.24C16.655 7.064 17.035 6.976 17.443 6.976C17.851 6.976 18.227 7.056 18.571 7.216C18.923 7.368 19.227 7.584 19.483 7.864C19.739 8.136 19.939 8.46 20.083 8.836C20.235 9.212 20.311 9.62 20.311 10.06C20.311 10.492 20.235 10.896 20.083 11.272C19.939 11.648 19.739 11.976 19.483 12.256C19.227 12.528 18.923 12.744 18.571 12.904C18.227 13.064 17.851 13.144 17.443 13.144C17.035 13.144 16.655 13.064 16.303 12.904C15.951 12.736 15.667 12.5 15.451 12.196V13H14.071ZM18.919 10.06C18.919 9.804 18.871 9.568 18.775 9.352C18.687 9.128 18.563 8.936 18.403 8.776C18.251 8.608 18.067 8.476 17.851 8.38C17.635 8.284 17.403 8.236 17.155 8.236C16.907 8.236 16.675 8.284 16.459 8.38C16.243 8.476 16.055 8.608 15.895 8.776C15.743 8.936 15.619 9.128 15.523 9.352C15.435 9.568 15.391 9.804 15.391 10.06C15.391 10.316 15.435 10.556 15.523 10.78C15.619 10.996 15.743 11.188 15.895 11.356C16.055 11.516 16.243 11.644 16.459 11.74C16.675 11.836 16.907 11.884 17.155 11.884C17.403 11.884 17.635 11.836 17.851 11.74C18.067 11.644 18.251 11.516 18.403 11.356C18.563 11.188 18.687 10.996 18.775 10.78C18.871 10.556 18.919 10.316 18.919 10.06ZM26.9811 11.62C26.7331 12.084 26.3851 12.456 25.9371 12.736C25.4891 13.008 24.9531 13.144 24.3291 13.144C23.8811 13.144 23.4691 13.068 23.0931 12.916C22.7171 12.764 22.3931 12.552 22.1211 12.28C21.8571 12.008 21.6491 11.684 21.4971 11.308C21.3451 10.932 21.2691 10.516 21.2691 10.06C21.2691 9.62 21.3451 9.212 21.4971 8.836C21.6491 8.46 21.8571 8.136 22.1211 7.864C22.3931 7.584 22.7091 7.368 23.0691 7.216C23.4371 7.056 23.8331 6.976 24.2571 6.976C24.6891 6.976 25.0811 7.056 25.4331 7.216C25.7931 7.368 26.1011 7.584 26.3571 7.864C26.6211 8.136 26.8251 8.46 26.9691 8.836C27.1131 9.212 27.1851 9.62 27.1851 10.06C27.1851 10.172 27.1811 10.312 27.1731 10.48H22.6491C22.6651 10.696 22.7211 10.896 22.8171 11.08C22.9131 11.256 23.0371 11.412 23.1891 11.548C23.3411 11.676 23.5171 11.78 23.7171 11.86C23.9171 11.932 24.1251 11.968 24.3411 11.968C24.7251 11.968 25.0291 11.884 25.2531 11.716C25.4771 11.548 25.6731 11.336 25.8411 11.08L26.9811 11.62ZM25.8051 9.472C25.7811 9.28 25.7251 9.1 25.6371 8.932C25.5491 8.764 25.4371 8.62 25.3011 8.5C25.1651 8.38 25.0051 8.288 24.8211 8.224C24.6371 8.152 24.4411 8.116 24.2331 8.116C24.0251 8.116 23.8291 8.156 23.6451 8.236C23.4691 8.316 23.3091 8.42 23.1651 8.548C23.0291 8.668 22.9171 8.812 22.8291 8.98C22.7411 9.14 22.6851 9.304 22.6611 9.472H25.8051ZM29.8654 4.6V13H28.4734V4.6H29.8654Z" fill="#565656"/>
<rect x="0.5" y="22.5" width="299" height="41" rx="11.5" fill="white"/>
<rect x="0.5" y="22.5" width="299" height="41" rx="11.5" stroke="#AEAEAE"/>
<path d="M13.946 44.518C14.1233 44.994 14.3847 45.3767 14.73 45.666C15.0847 45.946 15.5093 46.086 16.004 46.086C16.424 46.086 16.788 45.9787 17.096 45.764C17.404 45.54 17.558 45.218 17.558 44.798C17.558 44.1913 17.1473 43.7387 16.326 43.44L15.164 43.02C14.436 42.7587 13.8713 42.4087 13.47 41.97C13.0687 41.5313 12.868 40.976 12.868 40.304C12.868 39.884 12.9427 39.5013 13.092 39.156C13.2507 38.8107 13.4653 38.5167 13.736 38.274C14.016 38.0313 14.338 37.8447 14.702 37.714C15.0753 37.5833 15.4767 37.518 15.906 37.518C16.6153 37.5273 17.25 37.7233 17.81 38.106C18.37 38.4793 18.7853 39.0067 19.056 39.688L17.614 40.416C17.4647 40.0427 17.25 39.73 16.97 39.478C16.69 39.2167 16.34 39.086 15.92 39.086C15.528 39.086 15.206 39.1887 14.954 39.394C14.702 39.5993 14.576 39.87 14.576 40.206C14.576 40.5047 14.6787 40.752 14.884 40.948C15.0893 41.1347 15.3927 41.3073 15.794 41.466L16.998 41.928C17.7633 42.2267 18.3327 42.6 18.706 43.048C19.0887 43.4867 19.28 44.0327 19.28 44.686C19.28 45.1527 19.1913 45.5727 19.014 45.946C18.8367 46.31 18.5987 46.6227 18.3 46.884C18.0013 47.136 17.6513 47.332 17.25 47.472C16.8487 47.6027 16.424 47.668 15.976 47.668C15.1547 47.668 14.4313 47.458 13.806 47.038C13.1807 46.6087 12.7327 46.002 12.462 45.218L13.946 44.518ZM27.0033 45.89C26.714 46.4313 26.308 46.8653 25.7853 47.192C25.2626 47.5093 24.6373 47.668 23.9093 47.668C23.3866 47.668 22.906 47.5793 22.4673 47.402C22.0286 47.2247 21.6506 46.9773 21.3333 46.66C21.0253 46.3427 20.7826 45.9647 20.6053 45.526C20.428 45.0873 20.3393 44.602 20.3393 44.07C20.3393 43.5567 20.428 43.0807 20.6053 42.642C20.7826 42.2033 21.0253 41.8253 21.3333 41.508C21.6506 41.1813 22.0193 40.9293 22.4393 40.752C22.8686 40.5653 23.3306 40.472 23.8253 40.472C24.3293 40.472 24.7866 40.5653 25.1973 40.752C25.6173 40.9293 25.9766 41.1813 26.2753 41.508C26.5833 41.8253 26.8213 42.2033 26.9893 42.642C27.1573 43.0807 27.2413 43.5567 27.2413 44.07C27.2413 44.2007 27.2366 44.364 27.2273 44.56H21.9493C21.968 44.812 22.0333 45.0453 22.1453 45.26C22.2573 45.4653 22.402 45.6473 22.5793 45.806C22.7566 45.9553 22.962 46.0767 23.1953 46.17C23.4286 46.254 23.6713 46.296 23.9233 46.296C24.3713 46.296 24.726 46.198 24.9873 46.002C25.2486 45.806 25.4773 45.5587 25.6733 45.26L27.0033 45.89ZM25.6313 43.384C25.6033 43.16 25.538 42.95 25.4353 42.754C25.3326 42.558 25.202 42.39 25.0433 42.25C24.8846 42.11 24.698 42.0027 24.4833 41.928C24.2686 41.844 24.04 41.802 23.7973 41.802C23.5546 41.802 23.326 41.8487 23.1113 41.942C22.906 42.0353 22.7193 42.1567 22.5513 42.306C22.3926 42.446 22.262 42.614 22.1593 42.81C22.0566 42.9967 21.9913 43.188 21.9633 43.384H25.6313ZM30.3683 37.7V47.5H28.7443V37.7H30.3683ZM38.597 45.89C38.3077 46.4313 37.9017 46.8653 37.379 47.192C36.8564 47.5093 36.231 47.668 35.503 47.668C34.9804 47.668 34.4997 47.5793 34.061 47.402C33.6224 47.2247 33.2444 46.9773 32.927 46.66C32.619 46.3427 32.3764 45.9647 32.199 45.526C32.0217 45.0873 31.933 44.602 31.933 44.07C31.933 43.5567 32.0217 43.0807 32.199 42.642C32.3764 42.2033 32.619 41.8253 32.927 41.508C33.2444 41.1813 33.613 40.9293 34.033 40.752C34.4624 40.5653 34.9244 40.472 35.419 40.472C35.923 40.472 36.3804 40.5653 36.791 40.752C37.211 40.9293 37.5704 41.1813 37.869 41.508C38.177 41.8253 38.415 42.2033 38.583 42.642C38.751 43.0807 38.835 43.5567 38.835 44.07C38.835 44.2007 38.8304 44.364 38.821 44.56H33.543C33.5617 44.812 33.627 45.0453 33.739 45.26C33.851 45.4653 33.9957 45.6473 34.173 45.806C34.3504 45.9553 34.5557 46.0767 34.789 46.17C35.0224 46.254 35.265 46.296 35.517 46.296C35.965 46.296 36.3197 46.198 36.581 46.002C36.8424 45.806 37.071 45.5587 37.267 45.26L38.597 45.89ZM37.225 43.384C37.197 43.16 37.1317 42.95 37.029 42.754C36.9264 42.558 36.7957 42.39 36.637 42.25C36.4784 42.11 36.2917 42.0027 36.077 41.928C35.8624 41.844 35.6337 41.802 35.391 41.802C35.1484 41.802 34.9197 41.8487 34.705 41.942C34.4997 42.0353 34.313 42.1567 34.145 42.306C33.9864 42.446 33.8557 42.614 33.753 42.81C33.6504 42.9967 33.585 43.188 33.557 43.384H37.225ZM39.8901 44.07C39.8901 43.5567 39.9787 43.0807 40.1561 42.642C40.3334 42.2033 40.5807 41.8253 40.8981 41.508C41.2247 41.1813 41.6074 40.9293 42.0461 40.752C42.4941 40.5653 42.9841 40.472 43.5161 40.472C44.1974 40.472 44.8087 40.6353 45.3501 40.962V42.572C44.8087 42.1613 44.2441 41.956 43.6561 41.956C43.3481 41.956 43.0634 42.012 42.8021 42.124C42.5501 42.2267 42.3261 42.376 42.1301 42.572C41.9434 42.7587 41.7941 42.9827 41.6821 43.244C41.5794 43.496 41.5281 43.7713 41.5281 44.07C41.5281 44.3687 41.5794 44.6487 41.6821 44.91C41.7941 45.162 41.9434 45.386 42.1301 45.582C42.3167 45.7687 42.5407 45.918 42.8021 46.03C43.0634 46.1327 43.3481 46.184 43.6561 46.184C43.9827 46.184 44.2907 46.1233 44.5801 46.002C44.8694 45.8807 45.1354 45.736 45.3781 45.568V47.178C44.7994 47.5047 44.1741 47.668 43.5021 47.668C42.9701 47.668 42.4801 47.5793 42.0321 47.402C41.5934 47.2247 41.2154 46.9773 40.8981 46.66C40.5807 46.3333 40.3334 45.9507 40.1561 45.512C39.9787 45.0733 39.8901 44.5927 39.8901 44.07ZM48.8456 38.61V40.64H50.6656V42.012H48.8456V45.092C48.8456 45.4747 48.9296 45.7547 49.0976 45.932C49.2749 46.1 49.5456 46.184 49.9096 46.184C50.0403 46.184 50.1709 46.17 50.3016 46.142C50.4416 46.1047 50.5629 46.0487 50.6656 45.974V47.416C50.5349 47.4907 50.3669 47.5513 50.1616 47.598C49.9563 47.6447 49.7136 47.668 49.4336 47.668C48.7429 47.668 48.2016 47.4673 47.8096 47.066C47.4269 46.6647 47.2356 46.1047 47.2356 45.386V42.012H46.2136V40.64H47.2356V38.61H48.8456ZM55.0815 42.6C55.0815 41.8907 55.2122 41.228 55.4735 40.612C55.7442 39.996 56.1082 39.4593 56.5655 39.002C57.0228 38.5447 57.5595 38.1853 58.1755 37.924C58.8008 37.6533 59.4635 37.518 60.1635 37.518C60.8635 37.518 61.5215 37.6533 62.1375 37.924C62.7628 38.1853 63.3042 38.5447 63.7615 39.002C64.2188 39.4593 64.5782 39.996 64.8395 40.612C65.1102 41.228 65.2455 41.8907 65.2455 42.6C65.2455 43.3 65.1102 43.958 64.8395 44.574C64.5782 45.19 64.2188 45.7267 63.7615 46.184C63.3042 46.6413 62.7628 47.0053 62.1375 47.276C61.5215 47.5373 60.8635 47.668 60.1635 47.668C59.4635 47.668 58.8008 47.5373 58.1755 47.276C57.5595 47.0053 57.0228 46.6413 56.5655 46.184C56.1082 45.7267 55.7442 45.19 55.4735 44.574C55.2122 43.958 55.0815 43.3 55.0815 42.6ZM56.8035 42.6C56.8035 43.076 56.8875 43.524 57.0555 43.944C57.2328 44.364 57.4708 44.728 57.7695 45.036C58.0775 45.344 58.4322 45.5913 58.8335 45.778C59.2442 45.9553 59.6875 46.044 60.1635 46.044C60.6395 46.044 61.0782 45.9553 61.4795 45.778C61.8902 45.5913 62.2448 45.344 62.5435 45.036C62.8515 44.728 63.0895 44.364 63.2575 43.944C63.4348 43.524 63.5235 43.076 63.5235 42.6C63.5235 42.124 63.4348 41.676 63.2575 41.256C63.0895 40.836 62.8515 40.472 62.5435 40.164C62.2448 39.8467 61.8902 39.5993 61.4795 39.422C61.0782 39.2353 60.6395 39.142 60.1635 39.142C59.6875 39.142 59.2442 39.2353 58.8335 39.422C58.4322 39.5993 58.0775 39.8467 57.7695 40.164C57.4708 40.472 57.2328 40.836 57.0555 41.256C56.8875 41.676 56.8035 42.124 56.8035 42.6ZM68.5125 40.64V41.62C68.7645 41.2653 69.0959 40.9853 69.5065 40.78C69.9172 40.5747 70.3605 40.472 70.8365 40.472C71.3125 40.472 71.7512 40.5653 72.1525 40.752C72.5632 40.9293 72.9179 41.1813 73.2165 41.508C73.5152 41.8253 73.7485 42.2033 73.9165 42.642C74.0939 43.0807 74.1825 43.5567 74.1825 44.07C74.1825 44.574 74.0939 45.0453 73.9165 45.484C73.7485 45.9227 73.5152 46.3053 73.2165 46.632C72.9179 46.9493 72.5632 47.2013 72.1525 47.388C71.7512 47.5747 71.3125 47.668 70.8365 47.668C70.3605 47.668 69.9172 47.5747 69.5065 47.388C69.0959 47.192 68.7645 46.9167 68.5125 46.562V50.412H66.9025V40.64H68.5125ZM72.5585 44.07C72.5585 43.7713 72.5025 43.496 72.3905 43.244C72.2879 42.9827 72.1432 42.7587 71.9565 42.572C71.7792 42.376 71.5645 42.222 71.3125 42.11C71.0605 41.998 70.7899 41.942 70.5005 41.942C70.2112 41.942 69.9405 41.998 69.6885 42.11C69.4365 42.222 69.2172 42.376 69.0305 42.572C68.8532 42.7587 68.7085 42.9827 68.5965 43.244C68.4939 43.496 68.4425 43.7713 68.4425 44.07C68.4425 44.3687 68.4939 44.6487 68.5965 44.91C68.7085 45.162 68.8532 45.386 69.0305 45.582C69.2172 45.7687 69.4365 45.918 69.6885 46.03C69.9405 46.142 70.2112 46.198 70.5005 46.198C70.7899 46.198 71.0605 46.142 71.3125 46.03C71.5645 45.918 71.7792 45.7687 71.9565 45.582C72.1432 45.386 72.2879 45.162 72.3905 44.91C72.5025 44.6487 72.5585 44.3687 72.5585 44.07ZM77.6522 38.61V40.64H79.4722V42.012H77.6522V45.092C77.6522 45.4747 77.7362 45.7547 77.9042 45.932C78.0816 46.1 78.3522 46.184 78.7162 46.184C78.8469 46.184 78.9776 46.17 79.1082 46.142C79.2482 46.1047 79.3696 46.0487 79.4722 45.974V47.416C79.3416 47.4907 79.1736 47.5513 78.9682 47.598C78.7629 47.6447 78.5202 47.668 78.2402 47.668C77.5496 47.668 77.0082 47.4673 76.6162 47.066C76.2336 46.6647 76.0422 46.1047 76.0422 45.386V42.012H75.0202V40.64H76.0422V38.61H77.6522ZM80.9025 47.5V40.64H82.5265V47.5H80.9025ZM82.7085 38.638C82.7085 38.9087 82.6105 39.142 82.4145 39.338C82.2279 39.534 81.9899 39.632 81.7005 39.632C81.4299 39.632 81.1965 39.534 81.0005 39.338C80.8045 39.142 80.7065 38.9087 80.7065 38.638C80.7065 38.358 80.8045 38.12 81.0005 37.924C81.1965 37.728 81.4299 37.63 81.7005 37.63C81.9899 37.63 82.2279 37.7327 82.4145 37.938C82.6105 38.134 82.7085 38.3673 82.7085 38.638ZM87.7453 40.472C88.2679 40.472 88.7533 40.5653 89.2013 40.752C89.6493 40.9387 90.0366 41.1953 90.3633 41.522C90.6899 41.8393 90.9419 42.2173 91.1193 42.656C91.3059 43.0947 91.3993 43.566 91.3993 44.07C91.3993 44.574 91.3059 45.0453 91.1193 45.484C90.9419 45.9227 90.6899 46.3053 90.3633 46.632C90.0366 46.9493 89.6493 47.2013 89.2013 47.388C88.7533 47.5747 88.2679 47.668 87.7453 47.668C87.2226 47.668 86.7373 47.5747 86.2893 47.388C85.8413 47.2013 85.4539 46.9493 85.1273 46.632C84.8006 46.3053 84.5439 45.9227 84.3573 45.484C84.1799 45.0453 84.0913 44.574 84.0913 44.07C84.0913 43.566 84.1799 43.0947 84.3573 42.656C84.5439 42.2173 84.8006 41.8393 85.1273 41.522C85.4539 41.1953 85.8413 40.9387 86.2893 40.752C86.7373 40.5653 87.2226 40.472 87.7453 40.472ZM87.7453 41.956C87.4559 41.956 87.1853 42.012 86.9333 42.124C86.6906 42.236 86.4759 42.3853 86.2893 42.572C86.1119 42.7587 85.9673 42.9827 85.8553 43.244C85.7526 43.5053 85.7013 43.7807 85.7013 44.07C85.7013 44.3687 85.7526 44.6487 85.8553 44.91C85.9673 45.162 86.1119 45.3813 86.2893 45.568C86.4759 45.7547 86.6906 45.904 86.9333 46.016C87.1853 46.128 87.4559 46.184 87.7453 46.184C88.0346 46.184 88.3006 46.128 88.5433 46.016C88.7953 45.904 89.0099 45.7547 89.1873 45.568C89.3739 45.3813 89.5186 45.162 89.6213 44.91C89.7333 44.6487 89.7893 44.3687 89.7893 44.07C89.7893 43.7807 89.7333 43.5053 89.6213 43.244C89.5186 42.9827 89.3739 42.7587 89.1873 42.572C89.0099 42.3853 88.7953 42.236 88.5433 42.124C88.3006 42.012 88.0346 41.956 87.7453 41.956ZM94.5851 47.5H92.9611V40.64H94.5851V41.55C94.7998 41.2233 95.0798 40.962 95.4251 40.766C95.7798 40.57 96.1998 40.472 96.6851 40.472C97.5251 40.472 98.1785 40.7333 98.6451 41.256C99.1118 41.7693 99.3451 42.474 99.3451 43.37V47.5H97.7211V43.678C97.7211 43.146 97.5905 42.7307 97.3291 42.432C97.0678 42.124 96.6898 41.97 96.1951 41.97C95.7098 41.97 95.3178 42.1427 95.0191 42.488C94.7298 42.8333 94.5851 43.3 94.5851 43.888V47.5ZM101.974 45.232C102.095 45.5493 102.277 45.806 102.52 46.002C102.762 46.1887 103.038 46.282 103.346 46.282C103.598 46.282 103.812 46.226 103.99 46.114C104.176 45.9927 104.27 45.8107 104.27 45.568C104.27 45.3813 104.204 45.232 104.074 45.12C103.952 45.008 103.756 44.91 103.486 44.826L102.66 44.56C101.493 44.1867 100.91 43.524 100.91 42.572C100.91 42.2547 100.97 41.9653 101.092 41.704C101.222 41.4427 101.395 41.2233 101.61 41.046C101.824 40.8593 102.072 40.7193 102.352 40.626C102.641 40.5233 102.949 40.472 103.276 40.472C103.836 40.472 104.335 40.612 104.774 40.892C105.222 41.172 105.553 41.55 105.768 42.026L104.466 42.726C104.335 42.4553 104.167 42.236 103.962 42.068C103.766 41.9 103.537 41.816 103.276 41.816C103.042 41.816 102.846 41.872 102.688 41.984C102.529 42.096 102.45 42.25 102.45 42.446C102.45 42.7727 102.706 43.02 103.22 43.188L104.032 43.454C104.676 43.6687 105.138 43.944 105.418 44.28C105.698 44.6067 105.838 44.9987 105.838 45.456C105.838 45.8107 105.768 46.1233 105.628 46.394C105.497 46.6647 105.315 46.898 105.082 47.094C104.848 47.2807 104.578 47.4207 104.27 47.514C103.971 47.6167 103.654 47.668 103.318 47.668C102.674 47.668 102.118 47.5093 101.652 47.192C101.185 46.8747 100.854 46.45 100.658 45.918L101.974 45.232Z" fill="#565656"/>
<path d="M276.631 47.0684C276.26 47.4395 275.703 47.4395 275.369 47.0684L269.432 41.1309C269.061 40.7969 269.061 40.2402 269.432 39.9062C269.766 39.5352 270.322 39.5352 270.656 39.9062L275.963 45.2129L281.307 39.8691C281.641 39.5352 282.197 39.5352 282.531 39.8691C282.902 40.2402 282.902 40.7969 282.531 41.1309L276.631 47.0684Z" fill="#565656"/>
</svg>
