<svg width="50" height="50" viewBox="0 0 50 50" fill="none" xmlns="http://www.w3.org/2000/svg">
<g filter="url(#filter0_d_7888_100)">
<rect x="4" width="42" height="42" rx="8" fill="#F1F1F5"/>
<path d="M32.8301 26.2188C31.123 28.7422 28.2656 30.375 25 30.375C19.7305 30.375 15.5 26.1445 15.5 20.875C15.5 15.6426 19.7305 11.375 25 11.375C29.1934 11.375 32.7559 14.1211 34.0176 17.9062H33.9062C32.2363 17.9062 30.9375 19.2422 30.9375 20.875C30.9375 21.543 31.1602 22.1738 31.5312 22.6562H28.5625C28.5254 22.6562 28.4883 22.6562 28.4512 22.6934C28.377 22.582 28.3398 22.5078 28.2656 22.4336C28.1172 22.248 27.8945 22.0625 27.6719 21.9512C27.1523 21.6543 26.5215 21.4688 25.8906 21.4688C25.7422 21.4688 25.6309 21.5801 25.5938 21.6914C25.5566 21.8398 25.5938 21.9883 25.7422 22.0254V22.0625C25.7422 22.0625 25.7422 22.0625 25.7793 22.0625C25.8164 22.0996 25.8535 22.0996 25.8906 22.1367C26.002 22.2109 26.1504 22.3223 26.2617 22.4336C26.4102 22.5449 26.5586 22.6562 26.6328 22.8047C26.707 22.916 26.7441 23.0273 26.7441 23.1016C26.7441 23.2129 26.707 23.2871 26.6328 23.4355C26.5215 23.584 26.4102 23.6953 26.2617 23.8066C26.1504 23.918 26.002 24.0293 25.8906 24.1035C25.8535 24.1406 25.8164 24.1406 25.7793 24.1777C25.7422 24.1777 25.7422 24.1777 25.7422 24.1777C25.6309 24.252 25.5938 24.3633 25.5938 24.4375C25.5938 24.5488 25.6309 24.6602 25.7422 24.6973V24.7344C25.7422 24.7344 25.7422 24.7344 25.7793 24.7344C25.8164 24.7715 25.8535 24.7715 25.8906 24.8086C26.002 24.8828 26.1504 24.9941 26.2617 25.1055C26.4102 25.2168 26.5586 25.3281 26.6328 25.4766C26.707 25.5879 26.7441 25.6992 26.7441 25.7734C26.7441 25.8848 26.707 25.959 26.6328 26.1074C26.5215 26.2559 26.4102 26.3672 26.2617 26.4785C26.1504 26.5898 26.002 26.7012 25.8906 26.7754C25.8535 26.8125 25.8164 26.8125 25.7793 26.8496C25.7422 26.8496 25.7422 26.8496 25.7422 26.8496C25.5938 26.9238 25.5566 27.0723 25.5938 27.1836C25.6309 27.332 25.7422 27.4062 25.8906 27.4062C26.5215 27.4062 27.1523 27.2578 27.6348 26.9609C27.8945 26.8125 28.1172 26.6641 28.2656 26.4785C28.3398 26.4043 28.377 26.3301 28.4141 26.2188C28.4512 26.2188 28.4883 26.2188 28.5254 26.2188H32.8301ZM23.3301 20.0586C23.5156 20.3184 23.8867 20.3926 24.1465 20.1699C24.4062 19.9844 24.4805 19.6133 24.2578 19.3535C23.1445 17.832 20.8809 17.832 19.7676 19.3535C19.5449 19.6133 19.6191 19.9844 19.8789 20.1699C20.1387 20.3926 20.5098 20.3184 20.6953 20.0586C21.3633 19.2051 22.6621 19.2051 23.3301 20.0586ZM26.6328 20.0586C27.3008 19.2051 28.5996 19.2051 29.2676 20.0586C29.4531 20.3184 29.8242 20.3926 30.084 20.1699C30.3438 19.9844 30.418 19.6133 30.1953 19.3535C29.082 17.832 26.8184 17.832 25.7051 19.3535C25.4824 19.6133 25.5566 19.9844 25.8164 20.1699C26.0762 20.3926 26.4473 20.3184 26.6328 20.0586ZM32.125 20.875C32.125 19.9102 32.9043 19.0938 33.9062 19.0938H35.0938C36.0586 19.0938 36.875 19.9102 36.875 20.875V23.25C36.875 24.252 36.0586 25.0312 35.0938 25.0312H27.9688C27.6348 25.0312 27.375 24.7715 27.375 24.4375C27.375 24.1406 27.6348 23.8438 27.9688 23.8438H35.0938C35.3906 23.8438 35.6875 23.584 35.6875 23.25V20.875C35.6875 20.5781 35.3906 20.2812 35.0938 20.2812H33.9062C33.5723 20.2812 33.3125 20.5781 33.3125 20.875C33.3125 21.209 33.5723 21.4688 33.9062 21.4688H34.5C34.7969 21.4688 35.0938 21.7656 35.0938 22.0625C35.0938 22.3965 34.7969 22.6562 34.5 22.6562H33.9062C32.9043 22.6562 32.125 21.877 32.125 20.875ZM15.0176 17.0527L14.2754 15.123C14.832 14.0469 15.5742 13.082 16.3906 12.2656L18.0234 12.7852C16.6875 13.9355 15.6484 15.3828 15.0176 17.0527ZM15.166 11.8574C14.6094 12.4141 14.1641 13.0449 13.7188 13.7129L13.1621 12.1914C13.0508 11.9688 13.125 11.7461 13.2734 11.5605C13.4219 11.4121 13.6816 11.3379 13.9043 11.4121L15.166 11.8574Z" fill="#706F9B"/>
</g>
<defs>
<filter id="filter0_d_7888_100" x="0" y="0" width="50" height="50" filterUnits="userSpaceOnUse" color-interpolation-filters="sRGB">
<feFlood flood-opacity="0" result="BackgroundImageFix"/>
<feColorMatrix in="SourceAlpha" type="matrix" values="0 0 0 0 0 0 0 0 0 0 0 0 0 0 0 0 0 0 127 0" result="hardAlpha"/>
<feOffset dy="4"/>
<feGaussianBlur stdDeviation="2"/>
<feComposite in2="hardAlpha" operator="out"/>
<feColorMatrix type="matrix" values="0 0 0 0 0 0 0 0 0 0 0 0 0 0 0 0 0 0 0.25 0"/>
<feBlend mode="normal" in2="BackgroundImageFix" result="effect1_dropShadow_7888_100"/>
<feBlend mode="normal" in="SourceGraphic" in2="effect1_dropShadow_7888_100" result="shape"/>
</filter>
</defs>
</svg>
