<svg width="305" height="67" viewBox="0 0 305 67" fill="none" xmlns="http://www.w3.org/2000/svg">
<path d="M4.924 4.6V11.656H7.876V13H3.484V4.6H4.924ZM14.833 7.12V13H13.465V12.148C13.249 12.452 12.965 12.696 12.613 12.88C12.261 13.056 11.881 13.144 11.473 13.144C11.065 13.144 10.685 13.064 10.333 12.904C9.989 12.744 9.689 12.528 9.433 12.256C9.177 11.976 8.973 11.648 8.821 11.272C8.677 10.896 8.605 10.492 8.605 10.06C8.605 9.628 8.677 9.224 8.821 8.848C8.973 8.472 9.177 8.148 9.433 7.876C9.689 7.596 9.989 7.376 10.333 7.216C10.685 7.056 11.065 6.976 11.473 6.976C11.881 6.976 12.261 7.06 12.613 7.228C12.965 7.388 13.249 7.62 13.465 7.924V7.12H14.833ZM9.997 10.06C9.997 10.316 10.041 10.556 10.129 10.78C10.225 10.996 10.349 11.188 10.501 11.356C10.661 11.516 10.849 11.644 11.065 11.74C11.281 11.836 11.513 11.884 11.761 11.884C12.009 11.884 12.241 11.836 12.457 11.74C12.673 11.644 12.857 11.516 13.009 11.356C13.169 11.188 13.293 10.996 13.381 10.78C13.477 10.556 13.525 10.316 13.525 10.06C13.525 9.804 13.477 9.568 13.381 9.352C13.293 9.128 13.169 8.936 13.009 8.776C12.857 8.608 12.673 8.476 12.457 8.38C12.241 8.284 12.009 8.236 11.761 8.236C11.513 8.236 11.281 8.284 11.065 8.38C10.849 8.476 10.661 8.608 10.501 8.776C10.349 8.936 10.225 9.128 10.129 9.352C10.041 9.568 9.997 9.804 9.997 10.06ZM16.571 13V4.6H17.951V7.96C18.167 7.656 18.451 7.416 18.803 7.24C19.155 7.064 19.535 6.976 19.943 6.976C20.351 6.976 20.727 7.056 21.071 7.216C21.423 7.368 21.727 7.584 21.983 7.864C22.239 8.136 22.439 8.46 22.583 8.836C22.735 9.212 22.811 9.62 22.811 10.06C22.811 10.492 22.735 10.896 22.583 11.272C22.439 11.648 22.239 11.976 21.983 12.256C21.727 12.528 21.423 12.744 21.071 12.904C20.727 13.064 20.351 13.144 19.943 13.144C19.535 13.144 19.155 13.064 18.803 12.904C18.451 12.736 18.167 12.5 17.951 12.196V13H16.571ZM21.419 10.06C21.419 9.804 21.371 9.568 21.275 9.352C21.187 9.128 21.063 8.936 20.903 8.776C20.751 8.608 20.567 8.476 20.351 8.38C20.135 8.284 19.903 8.236 19.655 8.236C19.407 8.236 19.175 8.284 18.959 8.38C18.743 8.476 18.555 8.608 18.395 8.776C18.243 8.936 18.119 9.128 18.023 9.352C17.935 9.568 17.891 9.804 17.891 10.06C17.891 10.316 17.935 10.556 18.023 10.78C18.119 10.996 18.243 11.188 18.395 11.356C18.555 11.516 18.743 11.644 18.959 11.74C19.175 11.836 19.407 11.884 19.655 11.884C19.903 11.884 20.135 11.836 20.351 11.74C20.567 11.644 20.751 11.516 20.903 11.356C21.063 11.188 21.187 10.996 21.275 10.78C21.371 10.556 21.419 10.316 21.419 10.06ZM29.4811 11.62C29.2331 12.084 28.8851 12.456 28.4371 12.736C27.9891 13.008 27.4531 13.144 26.8291 13.144C26.3811 13.144 25.9691 13.068 25.5931 12.916C25.2171 12.764 24.8931 12.552 24.6211 12.28C24.3571 12.008 24.1491 11.684 23.9971 11.308C23.8451 10.932 23.7691 10.516 23.7691 10.06C23.7691 9.62 23.8451 9.212 23.9971 8.836C24.1491 8.46 24.3571 8.136 24.6211 7.864C24.8931 7.584 25.2091 7.368 25.5691 7.216C25.9371 7.056 26.3331 6.976 26.7571 6.976C27.1891 6.976 27.5811 7.056 27.9331 7.216C28.2931 7.368 28.6011 7.584 28.8571 7.864C29.1211 8.136 29.3251 8.46 29.4691 8.836C29.6131 9.212 29.6851 9.62 29.6851 10.06C29.6851 10.172 29.6811 10.312 29.6731 10.48H25.1491C25.1651 10.696 25.2211 10.896 25.3171 11.08C25.4131 11.256 25.5371 11.412 25.6891 11.548C25.8411 11.676 26.0171 11.78 26.2171 11.86C26.4171 11.932 26.6251 11.968 26.8411 11.968C27.2251 11.968 27.5291 11.884 27.7531 11.716C27.9771 11.548 28.1731 11.336 28.3411 11.08L29.4811 11.62ZM28.3051 9.472C28.2811 9.28 28.2251 9.1 28.1371 8.932C28.0491 8.764 27.9371 8.62 27.8011 8.5C27.6651 8.38 27.5051 8.288 27.3211 8.224C27.1371 8.152 26.9411 8.116 26.7331 8.116C26.5251 8.116 26.3291 8.156 26.1451 8.236C25.9691 8.316 25.8091 8.42 25.6651 8.548C25.5291 8.668 25.4171 8.812 25.3291 8.98C25.2411 9.14 25.1851 9.304 25.1611 9.472H28.3051ZM32.3654 4.6V13H30.9734V4.6H32.3654Z" fill="#565656"/>
<rect x="1.25" y="20.75" width="302.5" height="44.5" rx="13.25" stroke="#CCC0F0" stroke-width="2.5"/>
<rect x="3" y="22.5" width="299" height="41" rx="11.5" fill="white"/>
<rect x="3" y="22.5" width="299" height="41" rx="11.5" stroke="#5C34CD"/>
<path d="M15.55 40.14H17.174V47.434C17.174 48.3207 16.9593 48.988 16.53 49.436C16.11 49.884 15.5407 50.108 14.822 50.108C14.6073 50.108 14.43 50.0893 14.29 50.052C14.1407 50.024 14.01 49.9867 13.898 49.94V48.526C14.066 48.61 14.2807 48.652 14.542 48.652C14.8593 48.652 15.1067 48.54 15.284 48.316C15.4613 48.1013 15.55 47.7887 15.55 47.378V40.14ZM17.356 38.138C17.356 38.4087 17.258 38.642 17.062 38.838C16.8753 39.034 16.6373 39.132 16.348 39.132C16.0773 39.132 15.844 39.034 15.648 38.838C15.452 38.642 15.354 38.4087 15.354 38.138C15.354 37.858 15.452 37.62 15.648 37.424C15.844 37.228 16.0773 37.13 16.348 37.13C16.6373 37.13 16.8753 37.2327 17.062 37.438C17.258 37.634 17.356 37.8673 17.356 38.138ZM22.3917 39.972C22.9144 39.972 23.3997 40.0653 23.8477 40.252C24.2957 40.4387 24.6831 40.6953 25.0097 41.022C25.3364 41.3393 25.5884 41.7173 25.7657 42.156C25.9524 42.5947 26.0457 43.066 26.0457 43.57C26.0457 44.074 25.9524 44.5453 25.7657 44.984C25.5884 45.4227 25.3364 45.8053 25.0097 46.132C24.6831 46.4493 24.2957 46.7013 23.8477 46.888C23.3997 47.0747 22.9144 47.168 22.3917 47.168C21.8691 47.168 21.3837 47.0747 20.9357 46.888C20.4877 46.7013 20.1004 46.4493 19.7737 46.132C19.4471 45.8053 19.1904 45.4227 19.0037 44.984C18.8264 44.5453 18.7377 44.074 18.7377 43.57C18.7377 43.066 18.8264 42.5947 19.0037 42.156C19.1904 41.7173 19.4471 41.3393 19.7737 41.022C20.1004 40.6953 20.4877 40.4387 20.9357 40.252C21.3837 40.0653 21.8691 39.972 22.3917 39.972ZM22.3917 41.456C22.1024 41.456 21.8317 41.512 21.5797 41.624C21.3371 41.736 21.1224 41.8853 20.9357 42.072C20.7584 42.2587 20.6137 42.4827 20.5017 42.744C20.3991 43.0053 20.3477 43.2807 20.3477 43.57C20.3477 43.8687 20.3991 44.1487 20.5017 44.41C20.6137 44.662 20.7584 44.8813 20.9357 45.068C21.1224 45.2547 21.3371 45.404 21.5797 45.516C21.8317 45.628 22.1024 45.684 22.3917 45.684C22.6811 45.684 22.9471 45.628 23.1897 45.516C23.4417 45.404 23.6564 45.2547 23.8337 45.068C24.0204 44.8813 24.1651 44.662 24.2677 44.41C24.3797 44.1487 24.4357 43.8687 24.4357 43.57C24.4357 43.2807 24.3797 43.0053 24.2677 42.744C24.1651 42.4827 24.0204 42.2587 23.8337 42.072C23.6564 41.8853 23.4417 41.736 23.1897 41.624C22.9471 41.512 22.6811 41.456 22.3917 41.456ZM29.2316 47H27.6076V37.2H29.2316V41.05C29.4463 40.7233 29.7263 40.462 30.0716 40.266C30.4263 40.07 30.8463 39.972 31.3316 39.972C32.1716 39.972 32.8249 40.2333 33.2916 40.756C33.7583 41.2693 33.9916 41.974 33.9916 42.87V47H32.3676V43.178C32.3676 42.646 32.2369 42.2307 31.9756 41.932C31.7143 41.624 31.3363 41.47 30.8416 41.47C30.3563 41.47 29.9643 41.6427 29.6656 41.988C29.3763 42.3333 29.2316 42.8 29.2316 43.388V47ZM37.5441 47H35.9201V40.14H37.5441V41.05C37.7588 40.7233 38.0388 40.462 38.3841 40.266C38.7388 40.07 39.1588 39.972 39.6441 39.972C40.4841 39.972 41.1374 40.2333 41.6041 40.756C42.0708 41.2693 42.3041 41.974 42.3041 42.87V47H40.6801V43.178C40.6801 42.646 40.5494 42.2307 40.2881 41.932C40.0268 41.624 39.6488 41.47 39.1541 41.47C38.6688 41.47 38.2768 41.6427 37.9781 41.988C37.6888 42.3333 37.5441 42.8 37.5441 43.388V47ZM44.0506 46.118C44.0506 45.8287 44.1486 45.586 44.3446 45.39C44.5499 45.1847 44.8019 45.082 45.1006 45.082C45.3993 45.082 45.6466 45.1847 45.8426 45.39C46.0479 45.586 46.1506 45.8287 46.1506 46.118C46.1506 46.4073 46.0479 46.6547 45.8426 46.86C45.6466 47.056 45.3993 47.154 45.1006 47.154C44.8019 47.154 44.5499 47.056 44.3446 46.86C44.1486 46.6547 44.0506 46.4073 44.0506 46.118ZM53.2007 47V46.02C52.9487 46.3747 52.6174 46.6547 52.2067 46.86C51.796 47.0653 51.3527 47.168 50.8767 47.168C50.4007 47.168 49.9574 47.0793 49.5467 46.902C49.1454 46.7153 48.7954 46.4633 48.4967 46.146C48.198 45.8193 47.96 45.4367 47.7827 44.998C47.6147 44.5593 47.5307 44.0833 47.5307 43.57C47.5307 43.066 47.6147 42.5947 47.7827 42.156C47.96 41.7173 48.198 41.3393 48.4967 41.022C48.7954 40.6953 49.1454 40.4387 49.5467 40.252C49.9574 40.0653 50.4007 39.972 50.8767 39.972C51.3527 39.972 51.796 40.07 52.2067 40.266C52.6174 40.4527 52.9487 40.7233 53.2007 41.078V37.2H54.8107V47H53.2007ZM49.1547 43.57C49.1547 43.8687 49.206 44.1487 49.3087 44.41C49.4207 44.662 49.5654 44.886 49.7427 45.082C49.9294 45.2687 50.1487 45.418 50.4007 45.53C50.6527 45.642 50.9234 45.698 51.2127 45.698C51.502 45.698 51.7727 45.642 52.0247 45.53C52.2767 45.418 52.4914 45.2687 52.6687 45.082C52.8554 44.886 53 44.662 53.1027 44.41C53.2147 44.1487 53.2707 43.8687 53.2707 43.57C53.2707 43.2713 53.2147 42.996 53.1027 42.744C53 42.4827 52.8554 42.2587 52.6687 42.072C52.4914 41.876 52.2767 41.722 52.0247 41.61C51.7727 41.498 51.502 41.442 51.2127 41.442C50.9234 41.442 50.6527 41.498 50.4007 41.61C50.1487 41.722 49.9294 41.876 49.7427 42.072C49.5654 42.2587 49.4207 42.4827 49.3087 42.744C49.206 42.996 49.1547 43.2713 49.1547 43.57ZM60.0304 39.972C60.5531 39.972 61.0384 40.0653 61.4864 40.252C61.9344 40.4387 62.3217 40.6953 62.6484 41.022C62.9751 41.3393 63.2271 41.7173 63.4044 42.156C63.5911 42.5947 63.6844 43.066 63.6844 43.57C63.6844 44.074 63.5911 44.5453 63.4044 44.984C63.2271 45.4227 62.9751 45.8053 62.6484 46.132C62.3217 46.4493 61.9344 46.7013 61.4864 46.888C61.0384 47.0747 60.5531 47.168 60.0304 47.168C59.5077 47.168 59.0224 47.0747 58.5744 46.888C58.1264 46.7013 57.7391 46.4493 57.4124 46.132C57.0857 45.8053 56.8291 45.4227 56.6424 44.984C56.4651 44.5453 56.3764 44.074 56.3764 43.57C56.3764 43.066 56.4651 42.5947 56.6424 42.156C56.8291 41.7173 57.0857 41.3393 57.4124 41.022C57.7391 40.6953 58.1264 40.4387 58.5744 40.252C59.0224 40.0653 59.5077 39.972 60.0304 39.972ZM60.0304 41.456C59.7411 41.456 59.4704 41.512 59.2184 41.624C58.9757 41.736 58.7611 41.8853 58.5744 42.072C58.3971 42.2587 58.2524 42.4827 58.1404 42.744C58.0377 43.0053 57.9864 43.2807 57.9864 43.57C57.9864 43.8687 58.0377 44.1487 58.1404 44.41C58.2524 44.662 58.3971 44.8813 58.5744 45.068C58.7611 45.2547 58.9757 45.404 59.2184 45.516C59.4704 45.628 59.7411 45.684 60.0304 45.684C60.3197 45.684 60.5857 45.628 60.8284 45.516C61.0804 45.404 61.2951 45.2547 61.4724 45.068C61.6591 44.8813 61.8037 44.662 61.9064 44.41C62.0184 44.1487 62.0744 43.8687 62.0744 43.57C62.0744 43.2807 62.0184 43.0053 61.9064 42.744C61.8037 42.4827 61.6591 42.2587 61.4724 42.072C61.2951 41.8853 61.0804 41.736 60.8284 41.624C60.5857 41.512 60.3197 41.456 60.0304 41.456ZM71.4623 45.39C71.1729 45.9313 70.7669 46.3653 70.2443 46.692C69.7216 47.0093 69.0963 47.168 68.3683 47.168C67.8456 47.168 67.3649 47.0793 66.9263 46.902C66.4876 46.7247 66.1096 46.4773 65.7923 46.16C65.4843 45.8427 65.2416 45.4647 65.0643 45.026C64.8869 44.5873 64.7983 44.102 64.7983 43.57C64.7983 43.0567 64.8869 42.5807 65.0643 42.142C65.2416 41.7033 65.4843 41.3253 65.7923 41.008C66.1096 40.6813 66.4783 40.4293 66.8983 40.252C67.3276 40.0653 67.7896 39.972 68.2843 39.972C68.7883 39.972 69.2456 40.0653 69.6563 40.252C70.0763 40.4293 70.4356 40.6813 70.7343 41.008C71.0423 41.3253 71.2803 41.7033 71.4483 42.142C71.6163 42.5807 71.7003 43.0567 71.7003 43.57C71.7003 43.7007 71.6956 43.864 71.6863 44.06H66.4083C66.4269 44.312 66.4923 44.5453 66.6043 44.76C66.7163 44.9653 66.8609 45.1473 67.0383 45.306C67.2156 45.4553 67.4209 45.5767 67.6543 45.67C67.8876 45.754 68.1303 45.796 68.3823 45.796C68.8303 45.796 69.1849 45.698 69.4463 45.502C69.7076 45.306 69.9363 45.0587 70.1323 44.76L71.4623 45.39ZM70.0903 42.884C70.0623 42.66 69.9969 42.45 69.8943 42.254C69.7916 42.058 69.6609 41.89 69.5023 41.75C69.3436 41.61 69.1569 41.5027 68.9423 41.428C68.7276 41.344 68.4989 41.302 68.2563 41.302C68.0136 41.302 67.7849 41.3487 67.5703 41.442C67.3649 41.5353 67.1783 41.6567 67.0103 41.806C66.8516 41.946 66.7209 42.114 66.6183 42.31C66.5156 42.4967 66.4503 42.688 66.4223 42.884H70.0903ZM81.1833 46.048C80.7446 46.048 80.4133 45.9547 80.1893 45.768C79.9746 45.5813 79.8393 45.376 79.7833 45.152C79.5966 45.432 79.3353 45.656 78.9993 45.824C78.6726 45.992 78.304 46.076 77.8933 46.076C77.5573 46.076 77.2493 46.0153 76.9693 45.894C76.6893 45.7633 76.4466 45.586 76.2413 45.362C76.036 45.138 75.8726 44.8673 75.7513 44.55C75.6393 44.2327 75.5833 43.8827 75.5833 43.5C75.5833 43.108 75.6486 42.7393 75.7793 42.394C75.9193 42.0487 76.1013 41.75 76.3253 41.498C76.5586 41.246 76.8293 41.0453 77.1373 40.896C77.4546 40.7467 77.7953 40.672 78.1593 40.672C78.5793 40.672 78.934 40.7513 79.2233 40.91C79.5126 41.0687 79.7273 41.2787 79.8673 41.54L79.9513 40.826H81.1273L80.7213 44.158C80.6466 44.69 80.8053 44.956 81.1973 44.956C81.3746 44.956 81.538 44.9 81.6873 44.788C81.846 44.6667 81.9813 44.5033 82.0933 44.298C82.2146 44.0927 82.308 43.85 82.3733 43.57C82.448 43.29 82.4853 42.982 82.4853 42.646C82.4853 42.114 82.3873 41.6287 82.1913 41.19C81.9953 40.7513 81.7246 40.378 81.3793 40.07C81.034 39.7527 80.628 39.5053 80.1613 39.328C79.6946 39.1507 79.1906 39.062 78.6493 39.062C78.0146 39.062 77.422 39.1693 76.8713 39.384C76.3206 39.5987 75.8353 39.902 75.4153 40.294C75.0046 40.6767 74.678 41.1387 74.4353 41.68C74.202 42.212 74.0853 42.8 74.0853 43.444C74.0853 44.1067 74.1973 44.704 74.4213 45.236C74.6453 45.7587 74.9486 46.202 75.3313 46.566C75.7233 46.93 76.176 47.21 76.6893 47.406C77.212 47.602 77.772 47.7 78.3693 47.7C78.976 47.7 79.55 47.616 80.0913 47.448C80.6326 47.2893 81.1133 47.0607 81.5333 46.762L82.1353 47.798C81.9206 47.9567 81.6686 48.1013 81.3793 48.232C81.09 48.3627 80.782 48.4747 80.4553 48.568C80.1286 48.6707 79.788 48.7453 79.4333 48.792C79.0786 48.848 78.724 48.876 78.3693 48.876C77.604 48.876 76.8806 48.7547 76.1993 48.512C75.5273 48.2693 74.9346 47.9147 74.4213 47.448C73.9173 46.9907 73.516 46.4307 73.2173 45.768C72.928 45.096 72.7833 44.3307 72.7833 43.472C72.7833 42.6507 72.9373 41.8993 73.2453 41.218C73.5626 40.5273 73.9873 39.9347 74.5193 39.44C75.0513 38.9453 75.672 38.5627 76.3813 38.292C77.1 38.0213 77.8653 37.886 78.6773 37.886C79.3866 37.886 80.0493 38.0073 80.6653 38.25C81.2906 38.4833 81.832 38.81 82.2893 39.23C82.7466 39.65 83.106 40.1447 83.3673 40.714C83.638 41.2833 83.7733 41.8993 83.7733 42.562C83.7733 43.1313 83.6986 43.6353 83.5493 44.074C83.4 44.5033 83.204 44.8673 82.9613 45.166C82.7186 45.4553 82.4386 45.6747 82.1213 45.824C81.8133 45.9733 81.5006 46.048 81.1833 46.048ZM78.1173 44.956C78.3133 44.956 78.5 44.914 78.6773 44.83C78.864 44.7367 79.0273 44.6107 79.1673 44.452C79.3073 44.2933 79.4193 44.1113 79.5033 43.906C79.5873 43.6913 79.6293 43.4627 79.6293 43.22C79.6293 42.8187 79.5126 42.4827 79.2793 42.212C79.046 41.932 78.724 41.792 78.3133 41.792C78.108 41.792 77.9166 41.8387 77.7393 41.932C77.562 42.016 77.4033 42.1373 77.2633 42.296C77.1326 42.4453 77.0253 42.6227 76.9413 42.828C76.8666 43.0333 76.8293 43.2527 76.8293 43.486C76.8293 43.9247 76.9553 44.2793 77.2073 44.55C77.4593 44.8207 77.7626 44.956 78.1173 44.956ZM85.9893 44.732C86.1106 45.0493 86.2926 45.306 86.5353 45.502C86.7779 45.6887 87.0533 45.782 87.3613 45.782C87.6133 45.782 87.8279 45.726 88.0053 45.614C88.1919 45.4927 88.2853 45.3107 88.2853 45.068C88.2853 44.8813 88.2199 44.732 88.0893 44.62C87.9679 44.508 87.7719 44.41 87.5013 44.326L86.6753 44.06C85.5086 43.6867 84.9253 43.024 84.9253 42.072C84.9253 41.7547 84.9859 41.4653 85.1073 41.204C85.2379 40.9427 85.4106 40.7233 85.6253 40.546C85.8399 40.3593 86.0873 40.2193 86.3673 40.126C86.6566 40.0233 86.9646 39.972 87.2913 39.972C87.8513 39.972 88.3506 40.112 88.7893 40.392C89.2373 40.672 89.5686 41.05 89.7833 41.526L88.4813 42.226C88.3506 41.9553 88.1826 41.736 87.9772 41.568C87.7813 41.4 87.5526 41.316 87.2913 41.316C87.0579 41.316 86.8619 41.372 86.7033 41.484C86.5446 41.596 86.4653 41.75 86.4653 41.946C86.4653 42.2727 86.7219 42.52 87.2353 42.688L88.0473 42.954C88.6913 43.1687 89.1533 43.444 89.4333 43.78C89.7133 44.1067 89.8533 44.4987 89.8533 44.956C89.8533 45.3107 89.7833 45.6233 89.6433 45.894C89.5126 46.1647 89.3306 46.398 89.0973 46.594C88.8639 46.7807 88.5933 46.9207 88.2853 47.014C87.9866 47.1167 87.6693 47.168 87.3333 47.168C86.6893 47.168 86.1339 47.0093 85.6673 46.692C85.2006 46.3747 84.8693 45.95 84.6733 45.418L85.9893 44.732ZM97.5072 45.39C97.2179 45.9313 96.8119 46.3653 96.2892 46.692C95.7665 47.0093 95.1412 47.168 94.4132 47.168C93.8905 47.168 93.4099 47.0793 92.9712 46.902C92.5325 46.7247 92.1545 46.4773 91.8372 46.16C91.5292 45.8427 91.2865 45.4647 91.1092 45.026C90.9319 44.5873 90.8432 44.102 90.8432 43.57C90.8432 43.0567 90.9319 42.5807 91.1092 42.142C91.2865 41.7033 91.5292 41.3253 91.8372 41.008C92.1545 40.6813 92.5232 40.4293 92.9432 40.252C93.3725 40.0653 93.8345 39.972 94.3292 39.972C94.8332 39.972 95.2905 40.0653 95.7012 40.252C96.1212 40.4293 96.4805 40.6813 96.7792 41.008C97.0872 41.3253 97.3252 41.7033 97.4932 42.142C97.6612 42.5807 97.7452 43.0567 97.7452 43.57C97.7452 43.7007 97.7405 43.864 97.7312 44.06H92.4532C92.4719 44.312 92.5372 44.5453 92.6492 44.76C92.7612 44.9653 92.9059 45.1473 93.0832 45.306C93.2605 45.4553 93.4659 45.5767 93.6992 45.67C93.9325 45.754 94.1752 45.796 94.4272 45.796C94.8752 45.796 95.2299 45.698 95.4912 45.502C95.7525 45.306 95.9812 45.0587 96.1772 44.76L97.5072 45.39ZM96.1352 42.884C96.1072 42.66 96.0419 42.45 95.9392 42.254C95.8365 42.058 95.7059 41.89 95.5472 41.75C95.3885 41.61 95.2019 41.5027 94.9872 41.428C94.7725 41.344 94.5439 41.302 94.3012 41.302C94.0585 41.302 93.8299 41.3487 93.6152 41.442C93.4099 41.5353 93.2232 41.6567 93.0552 41.806C92.8965 41.946 92.7659 42.114 92.6632 42.31C92.5605 42.4967 92.4952 42.688 92.4672 42.884H96.1352ZM100.872 47H99.2482V40.14H100.872V41.05C101.087 40.7233 101.367 40.462 101.712 40.266C102.067 40.07 102.487 39.972 102.972 39.972C103.812 39.972 104.466 40.2333 104.932 40.756C105.399 41.2693 105.632 41.974 105.632 42.87V47H104.008V43.178C104.008 42.646 103.878 42.2307 103.616 41.932C103.355 41.624 102.977 41.47 102.482 41.47C101.997 41.47 101.605 41.6427 101.306 41.988C101.017 42.3333 100.872 42.8 100.872 43.388V47ZM108.261 44.732C108.382 45.0493 108.564 45.306 108.807 45.502C109.049 45.6887 109.325 45.782 109.633 45.782C109.885 45.782 110.099 45.726 110.277 45.614C110.463 45.4927 110.557 45.3107 110.557 45.068C110.557 44.8813 110.491 44.732 110.361 44.62C110.239 44.508 110.043 44.41 109.773 44.326L108.947 44.06C107.78 43.6867 107.197 43.024 107.197 42.072C107.197 41.7547 107.257 41.4653 107.379 41.204C107.509 40.9427 107.682 40.7233 107.897 40.546C108.111 40.3593 108.359 40.2193 108.639 40.126C108.928 40.0233 109.236 39.972 109.563 39.972C110.123 39.972 110.622 40.112 111.061 40.392C111.509 40.672 111.84 41.05 112.055 41.526L110.753 42.226C110.622 41.9553 110.454 41.736 110.249 41.568C110.053 41.4 109.824 41.316 109.563 41.316C109.329 41.316 109.133 41.372 108.975 41.484C108.816 41.596 108.737 41.75 108.737 41.946C108.737 42.2727 108.993 42.52 109.507 42.688L110.319 42.954C110.963 43.1687 111.425 43.444 111.705 43.78C111.985 44.1067 112.125 44.4987 112.125 44.956C112.125 45.3107 112.055 45.6233 111.915 45.894C111.784 46.1647 111.602 46.398 111.369 46.594C111.135 46.7807 110.865 46.9207 110.557 47.014C110.258 47.1167 109.941 47.168 109.605 47.168C108.961 47.168 108.405 47.0093 107.939 46.692C107.472 46.3747 107.141 45.95 106.945 45.418L108.261 44.732ZM119.779 45.39C119.489 45.9313 119.083 46.3653 118.561 46.692C118.038 47.0093 117.413 47.168 116.685 47.168C116.162 47.168 115.681 47.0793 115.243 46.902C114.804 46.7247 114.426 46.4773 114.109 46.16C113.801 45.8427 113.558 45.4647 113.381 45.026C113.203 44.5873 113.115 44.102 113.115 43.57C113.115 43.0567 113.203 42.5807 113.381 42.142C113.558 41.7033 113.801 41.3253 114.109 41.008C114.426 40.6813 114.795 40.4293 115.215 40.252C115.644 40.0653 116.106 39.972 116.601 39.972C117.105 39.972 117.562 40.0653 117.973 40.252C118.393 40.4293 118.752 40.6813 119.051 41.008C119.359 41.3253 119.597 41.7033 119.765 42.142C119.933 42.5807 120.017 43.0567 120.017 43.57C120.017 43.7007 120.012 43.864 120.003 44.06H114.725C114.743 44.312 114.809 44.5453 114.921 44.76C115.033 44.9653 115.177 45.1473 115.355 45.306C115.532 45.4553 115.737 45.5767 115.971 45.67C116.204 45.754 116.447 45.796 116.699 45.796C117.147 45.796 117.501 45.698 117.763 45.502C118.024 45.306 118.253 45.0587 118.449 44.76L119.779 45.39ZM118.407 42.884C118.379 42.66 118.313 42.45 118.211 42.254C118.108 42.058 117.977 41.89 117.819 41.75C117.66 41.61 117.473 41.5027 117.259 41.428C117.044 41.344 116.815 41.302 116.573 41.302C116.33 41.302 116.101 41.3487 115.887 41.442C115.681 41.5353 115.495 41.6567 115.327 41.806C115.168 41.946 115.037 42.114 114.935 42.31C114.832 42.4967 114.767 42.688 114.739 42.884H118.407ZM123.144 47H121.52V37.2H123.144V41.05C123.358 40.7233 123.638 40.462 123.984 40.266C124.338 40.07 124.758 39.972 125.244 39.972C126.084 39.972 126.737 40.2333 127.204 40.756C127.67 41.2693 127.904 41.974 127.904 42.87V47H126.28V43.178C126.28 42.646 126.149 42.2307 125.888 41.932C125.626 41.624 125.248 41.47 124.754 41.47C124.268 41.47 123.876 41.6427 123.578 41.988C123.288 42.3333 123.144 42.8 123.144 43.388V47ZM136.664 40.14V49.912H135.054V46.02C134.812 46.3747 134.485 46.6547 134.074 46.86C133.664 47.0653 133.216 47.168 132.73 47.168C132.254 47.168 131.811 47.0747 131.4 46.888C130.999 46.7013 130.649 46.4493 130.35 46.132C130.052 45.8053 129.814 45.4227 129.636 44.984C129.468 44.5453 129.384 44.074 129.384 43.57C129.384 43.066 129.468 42.5947 129.636 42.156C129.814 41.7173 130.052 41.3393 130.35 41.022C130.649 40.6953 130.999 40.4387 131.4 40.252C131.811 40.0653 132.254 39.972 132.73 39.972C133.216 39.972 133.659 40.07 134.06 40.266C134.471 40.4527 134.802 40.7233 135.054 41.078V40.14H136.664ZM131.008 43.57C131.008 43.8687 131.06 44.1487 131.162 44.41C131.274 44.662 131.419 44.886 131.596 45.082C131.783 45.2687 132.002 45.418 132.254 45.53C132.506 45.642 132.777 45.698 133.066 45.698C133.356 45.698 133.626 45.642 133.878 45.53C134.13 45.418 134.345 45.2687 134.522 45.082C134.709 44.886 134.854 44.662 134.956 44.41C135.068 44.1487 135.124 43.8687 135.124 43.57C135.124 43.2713 135.068 42.996 134.956 42.744C134.854 42.4827 134.709 42.2587 134.522 42.072C134.345 41.876 134.13 41.722 133.878 41.61C133.626 41.498 133.356 41.442 133.066 41.442C132.777 41.442 132.506 41.498 132.254 41.61C132.002 41.722 131.783 41.876 131.596 42.072C131.419 42.2587 131.274 42.4827 131.162 42.744C131.06 42.996 131.008 43.2713 131.008 43.57ZM138.496 46.118C138.496 45.8287 138.594 45.586 138.79 45.39C138.995 45.1847 139.247 45.082 139.546 45.082C139.845 45.082 140.092 45.1847 140.288 45.39C140.493 45.586 140.596 45.8287 140.596 46.118C140.596 46.4073 140.493 46.6547 140.288 46.86C140.092 47.056 139.845 47.154 139.546 47.154C139.247 47.154 138.995 47.056 138.79 46.86C138.594 46.6547 138.496 46.4073 138.496 46.118ZM141.976 43.57C141.976 43.0567 142.065 42.5807 142.242 42.142C142.419 41.7033 142.667 41.3253 142.984 41.008C143.311 40.6813 143.693 40.4293 144.132 40.252C144.58 40.0653 145.07 39.972 145.602 39.972C146.283 39.972 146.895 40.1353 147.436 40.462V42.072C146.895 41.6613 146.33 41.456 145.742 41.456C145.434 41.456 145.149 41.512 144.888 41.624C144.636 41.7267 144.412 41.876 144.216 42.072C144.029 42.2587 143.88 42.4827 143.768 42.744C143.665 42.996 143.614 43.2713 143.614 43.57C143.614 43.8687 143.665 44.1487 143.768 44.41C143.88 44.662 144.029 44.886 144.216 45.082C144.403 45.2687 144.627 45.418 144.888 45.53C145.149 45.6327 145.434 45.684 145.742 45.684C146.069 45.684 146.377 45.6233 146.666 45.502C146.955 45.3807 147.221 45.236 147.464 45.068V46.678C146.885 47.0047 146.26 47.168 145.588 47.168C145.056 47.168 144.566 47.0793 144.118 46.902C143.679 46.7247 143.301 46.4773 142.984 46.16C142.667 45.8333 142.419 45.4507 142.242 45.012C142.065 44.5733 141.976 44.0927 141.976 43.57ZM152.234 39.972C152.756 39.972 153.242 40.0653 153.69 40.252C154.138 40.4387 154.525 40.6953 154.852 41.022C155.178 41.3393 155.43 41.7173 155.608 42.156C155.794 42.5947 155.888 43.066 155.888 43.57C155.888 44.074 155.794 44.5453 155.608 44.984C155.43 45.4227 155.178 45.8053 154.852 46.132C154.525 46.4493 154.138 46.7013 153.69 46.888C153.242 47.0747 152.756 47.168 152.234 47.168C151.711 47.168 151.226 47.0747 150.778 46.888C150.33 46.7013 149.942 46.4493 149.616 46.132C149.289 45.8053 149.032 45.4227 148.846 44.984C148.668 44.5453 148.58 44.074 148.58 43.57C148.58 43.066 148.668 42.5947 148.846 42.156C149.032 41.7173 149.289 41.3393 149.616 41.022C149.942 40.6953 150.33 40.4387 150.778 40.252C151.226 40.0653 151.711 39.972 152.234 39.972ZM152.234 41.456C151.944 41.456 151.674 41.512 151.422 41.624C151.179 41.736 150.964 41.8853 150.778 42.072C150.6 42.2587 150.456 42.4827 150.344 42.744C150.241 43.0053 150.19 43.2807 150.19 43.57C150.19 43.8687 150.241 44.1487 150.344 44.41C150.456 44.662 150.6 44.8813 150.778 45.068C150.964 45.2547 151.179 45.404 151.422 45.516C151.674 45.628 151.944 45.684 152.234 45.684C152.523 45.684 152.789 45.628 153.032 45.516C153.284 45.404 153.498 45.2547 153.676 45.068C153.862 44.8813 154.007 44.662 154.11 44.41C154.222 44.1487 154.278 43.8687 154.278 43.57C154.278 43.2807 154.222 43.0053 154.11 42.744C154.007 42.4827 153.862 42.2587 153.676 42.072C153.498 41.8853 153.284 41.736 153.032 41.624C152.789 41.512 152.523 41.456 152.234 41.456ZM159.073 47H157.449V40.14H159.073V41.05C159.26 40.7233 159.517 40.462 159.843 40.266C160.17 40.07 160.567 39.972 161.033 39.972C161.528 39.972 161.953 40.084 162.307 40.308C162.662 40.532 162.933 40.8447 163.119 41.246C163.213 41.078 163.329 40.9193 163.469 40.77C163.619 40.6207 163.787 40.4853 163.973 40.364C164.16 40.2427 164.37 40.1493 164.603 40.084C164.846 40.0093 165.112 39.972 165.401 39.972C166.195 39.972 166.806 40.2287 167.235 40.742C167.674 41.246 167.893 41.9273 167.893 42.786V47H166.269V43.094C166.269 42.59 166.157 42.1933 165.933 41.904C165.709 41.6053 165.383 41.456 164.953 41.456C164.515 41.456 164.16 41.624 163.889 41.96C163.628 42.2867 163.493 42.73 163.483 43.29V47H161.859V43.15C161.859 42.618 161.747 42.2027 161.523 41.904C161.299 41.6053 160.973 41.456 160.543 41.456C160.095 41.456 159.736 41.6287 159.465 41.974C159.204 42.31 159.073 42.772 159.073 43.36V47Z" fill="#17172A"/>
</svg>
