<svg width="466" height="34" viewBox="0 0 466 34" fill="none" xmlns="http://www.w3.org/2000/svg">
<rect width="34" height="34" rx="8" fill="white" fill-opacity="0.01"/>
<path d="M22.6875 16.75C22.6875 17.1328 22.3867 17.4062 22.0312 17.4062H11.9688C11.5859 17.4062 11.3125 17.1328 11.3125 16.75C11.3125 16.3945 11.5859 16.0938 11.9688 16.0938H22.0312C22.3867 16.0938 22.6875 16.3945 22.6875 16.75Z" fill="#17172A"/>
<rect x="42" y="15" width="316" height="4" rx="2" fill="#EBEBEB"/>
<rect x="42" y="15" width="237" height="4" rx="2" fill="#5C34CD"/>
<rect x="268" y="6" width="22" height="22" rx="11" fill="#5C34CD"/>
<rect x="268" y="6" width="22" height="22" rx="11" stroke="white" stroke-width="2"/>
<rect x="366" width="34" height="34" rx="8" fill="white" fill-opacity="0.01"/>
<path d="M383.656 11.7188V16.0938H388.031C388.387 16.0938 388.688 16.3945 388.688 16.75C388.688 17.1328 388.387 17.4062 388.031 17.4062H383.656V21.7812C383.656 22.1641 383.355 22.4375 383 22.4375C382.617 22.4375 382.344 22.1641 382.344 21.7812V17.4062H377.969C377.586 17.4062 377.312 17.1328 377.312 16.75C377.312 16.3945 377.586 16.0938 377.969 16.0938H382.344V11.7188C382.344 11.3633 382.617 11.0625 383 11.0625C383.355 11.0625 383.656 11.3633 383.656 11.7188Z" fill="#17172A"/>
<rect x="408.5" y="0.5" width="57" height="33" rx="7.5" fill="white"/>
<rect x="408.5" y="0.5" width="57" height="33" rx="7.5" stroke="#E1E1E1"/>
<path d="M423.302 22H421.612L425.187 14.473H420.897V13.082H426.955V14.213L423.302 22ZM428.861 17.84L429.511 13.069H434.464V14.434H430.694L430.395 16.592C430.594 16.3927 430.854 16.2367 431.175 16.124C431.496 16.0113 431.829 15.955 432.176 15.955C432.601 15.955 432.991 16.033 433.346 16.189C433.71 16.345 434.022 16.5573 434.282 16.826C434.542 17.0947 434.741 17.411 434.88 17.775C435.027 18.1303 435.101 18.5117 435.101 18.919C435.101 19.3783 435.019 19.8073 434.854 20.206C434.689 20.596 434.46 20.9383 434.165 21.233C433.87 21.519 433.524 21.7443 433.125 21.909C432.735 22.0737 432.315 22.156 431.864 22.156C431.396 22.156 430.963 22.0867 430.564 21.948C430.174 21.8093 429.836 21.6143 429.55 21.363C429.273 21.103 429.052 20.7997 428.887 20.453C428.731 20.0977 428.649 19.712 428.64 19.296H430.148C430.191 19.712 430.36 20.0587 430.655 20.336C430.958 20.6047 431.357 20.739 431.851 20.739C432.094 20.739 432.319 20.6957 432.527 20.609C432.735 20.5137 432.913 20.388 433.06 20.232C433.216 20.076 433.337 19.894 433.424 19.686C433.511 19.4693 433.554 19.2397 433.554 18.997C433.554 18.7543 433.511 18.529 433.424 18.321C433.337 18.1043 433.216 17.918 433.06 17.762C432.904 17.606 432.718 17.4847 432.501 17.398C432.293 17.3113 432.068 17.268 431.825 17.268C431.478 17.268 431.175 17.3503 430.915 17.515C430.655 17.671 430.434 17.8747 430.252 18.126L428.861 17.84Z" fill="#17172A"/>
</svg>
