<svg width="135" height="42" viewBox="0 0 135 42" fill="none" xmlns="http://www.w3.org/2000/svg">
<rect width="135" height="42" rx="12" fill="#F4F4F4"/>
<rect x="2.5" y="2.5" width="37" height="37" rx="11.5" fill="white"/>
<rect x="2.5" y="2.5" width="37" height="37" rx="11.5" stroke="#E1E1E1"/>
<path d="M28.7188 20.875C28.7188 21.3945 28.3105 21.7656 27.8281 21.7656H14.1719C13.6523 21.7656 13.2812 21.3945 13.2812 20.875C13.2812 20.3926 13.6523 19.9844 14.1719 19.9844H27.8281C28.3105 19.9844 28.7188 20.3926 28.7188 20.875Z" fill="#17172A"/>
<rect x="95.5" y="2.5" width="37" height="37" rx="11.5" fill="white"/>
<rect x="95.5" y="2.5" width="37" height="37" rx="11.5" stroke="#E1E1E1"/>
<path d="M114.891 14.0469V19.9844H120.828C121.311 19.9844 121.719 20.3926 121.719 20.875C121.719 21.3945 121.311 21.7656 120.828 21.7656H114.891V27.7031C114.891 28.2227 114.482 28.5938 114 28.5938C113.48 28.5938 113.109 28.2227 113.109 27.7031V21.7656H107.172C106.652 21.7656 106.281 21.3945 106.281 20.875C106.281 20.3926 106.652 19.9844 107.172 19.9844H113.109V14.0469C113.109 13.5645 113.48 13.1562 114 13.1562C114.482 13.1562 114.891 13.5645 114.891 14.0469Z" fill="#17172A"/>
<path d="M60.1135 21.02L60.8135 15.882H66.1475V17.352H62.0875L61.7655 19.676C61.9801 19.4613 62.2601 19.2933 62.6055 19.172C62.9508 19.0507 63.3101 18.99 63.6835 18.99C64.1408 18.99 64.5608 19.074 64.9435 19.242C65.3355 19.41 65.6715 19.6387 65.9515 19.928C66.2315 20.2173 66.4461 20.558 66.5955 20.95C66.7541 21.3327 66.8335 21.7433 66.8335 22.182C66.8335 22.6767 66.7448 23.1387 66.5675 23.568C66.3901 23.988 66.1428 24.3567 65.8255 24.674C65.5081 24.982 65.1348 25.2247 64.7055 25.402C64.2855 25.5793 63.8328 25.668 63.3475 25.668C62.8435 25.668 62.3768 25.5933 61.9475 25.444C61.5275 25.2947 61.1635 25.0847 60.8555 24.814C60.5568 24.534 60.3188 24.2073 60.1415 23.834C59.9735 23.4513 59.8848 23.036 59.8755 22.588H61.4995C61.5461 23.036 61.7281 23.4093 62.0455 23.708C62.3721 23.9973 62.8015 24.142 63.3335 24.142C63.5948 24.142 63.8375 24.0953 64.0615 24.002C64.2855 23.8993 64.4768 23.764 64.6355 23.596C64.8035 23.428 64.9341 23.232 65.0275 23.008C65.1208 22.7747 65.1675 22.5273 65.1675 22.266C65.1675 22.0047 65.1208 21.762 65.0275 21.538C64.9341 21.3047 64.8035 21.104 64.6355 20.936C64.4675 20.768 64.2668 20.6373 64.0335 20.544C63.8095 20.4507 63.5668 20.404 63.3055 20.404C62.9321 20.404 62.6055 20.4927 62.3255 20.67C62.0455 20.838 61.8075 21.0573 61.6115 21.328L60.1135 21.02ZM75.34 20.684C75.34 21.4493 75.256 22.14 75.088 22.756C74.92 23.3627 74.6773 23.8853 74.36 24.324C74.0427 24.7533 73.66 25.0847 73.212 25.318C72.764 25.5513 72.26 25.668 71.7 25.668C71.14 25.668 70.636 25.5513 70.188 25.318C69.74 25.0847 69.3573 24.7533 69.04 24.324C68.7227 23.8853 68.48 23.3627 68.312 22.756C68.144 22.14 68.06 21.4493 68.06 20.684C68.06 19.928 68.144 19.242 68.312 18.626C68.48 18.01 68.7227 17.4873 69.04 17.058C69.3573 16.6287 69.74 16.2973 70.188 16.064C70.636 15.8307 71.14 15.714 71.7 15.714C72.26 15.714 72.764 15.8307 73.212 16.064C73.66 16.2973 74.0427 16.6287 74.36 17.058C74.6773 17.4873 74.92 18.01 75.088 18.626C75.256 19.242 75.34 19.928 75.34 20.684ZM73.688 20.684C73.688 19.6107 73.5107 18.7753 73.156 18.178C72.8013 17.5807 72.316 17.282 71.7 17.282C71.084 17.282 70.5987 17.5807 70.244 18.178C69.8893 18.7753 69.712 19.6107 69.712 20.684C69.712 21.7573 69.8893 22.5973 70.244 23.204C70.5987 23.8013 71.084 24.1 71.7 24.1C72.316 24.1 72.8013 23.8013 73.156 23.204C73.5107 22.5973 73.688 21.7573 73.688 20.684Z" fill="#17172A"/>
</svg>
