<svg width="145" height="24" viewBox="0 0 145 24" fill="none" xmlns="http://www.w3.org/2000/svg">
<rect x="2" y="3" width="36" height="18" rx="9" fill="#D1D1D1"/>
<rect x="6" y="7" width="10" height="10" rx="5" fill="white"/>
<path d="M60.266 6.7H67.392V8.254H64.676V16.5H62.982V8.254H60.266V6.7ZM71.8703 9.472C72.3929 9.472 72.8783 9.56533 73.3263 9.752C73.7743 9.93867 74.1616 10.1953 74.4883 10.522C74.8149 10.8393 75.0669 11.2173 75.2443 11.656C75.4309 12.0947 75.5243 12.566 75.5243 13.07C75.5243 13.574 75.4309 14.0453 75.2443 14.484C75.0669 14.9227 74.8149 15.3053 74.4883 15.632C74.1616 15.9493 73.7743 16.2013 73.3263 16.388C72.8783 16.5747 72.3929 16.668 71.8703 16.668C71.3476 16.668 70.8623 16.5747 70.4143 16.388C69.9663 16.2013 69.5789 15.9493 69.2523 15.632C68.9256 15.3053 68.6689 14.9227 68.4823 14.484C68.3049 14.0453 68.2163 13.574 68.2163 13.07C68.2163 12.566 68.3049 12.0947 68.4823 11.656C68.6689 11.2173 68.9256 10.8393 69.2523 10.522C69.5789 10.1953 69.9663 9.93867 70.4143 9.752C70.8623 9.56533 71.3476 9.472 71.8703 9.472ZM71.8703 10.956C71.5809 10.956 71.3103 11.012 71.0583 11.124C70.8156 11.236 70.6009 11.3853 70.4143 11.572C70.2369 11.7587 70.0923 11.9827 69.9803 12.244C69.8776 12.5053 69.8263 12.7807 69.8263 13.07C69.8263 13.3687 69.8776 13.6487 69.9803 13.91C70.0923 14.162 70.2369 14.3813 70.4143 14.568C70.6009 14.7547 70.8156 14.904 71.0583 15.016C71.3103 15.128 71.5809 15.184 71.8703 15.184C72.1596 15.184 72.4256 15.128 72.6683 15.016C72.9203 14.904 73.1349 14.7547 73.3123 14.568C73.4989 14.3813 73.6436 14.162 73.7463 13.91C73.8583 13.6487 73.9143 13.3687 73.9143 13.07C73.9143 12.7807 73.8583 12.5053 73.7463 12.244C73.6436 11.9827 73.4989 11.7587 73.3123 11.572C73.1349 11.3853 72.9203 11.236 72.6683 11.124C72.4256 11.012 72.1596 10.956 71.8703 10.956ZM82.1821 15.324C81.9488 15.6507 81.6315 15.9167 81.2301 16.122C80.8381 16.3273 80.4041 16.43 79.9281 16.43C79.4615 16.43 79.0275 16.3413 78.6261 16.164C78.2248 15.9867 77.8748 15.744 77.5761 15.436C77.2868 15.128 77.0581 14.764 76.8901 14.344C76.7221 13.924 76.6381 13.4667 76.6381 12.972C76.6381 12.4773 76.7221 12.02 76.8901 11.6C77.0581 11.1707 77.2868 10.7973 77.5761 10.48C77.8748 10.1627 78.2248 9.91533 78.6261 9.738C79.0275 9.56067 79.4615 9.472 79.9281 9.472C80.4041 9.472 80.8381 9.57 81.2301 9.766C81.6315 9.962 81.9488 10.228 82.1821 10.564V9.64H83.7781V16.08C83.7781 16.612 83.6941 17.0973 83.5261 17.536C83.3675 17.9747 83.1341 18.348 82.8261 18.656C82.5181 18.9733 82.1401 19.216 81.6921 19.384C81.2535 19.5613 80.7541 19.65 80.1941 19.65C79.4288 19.65 78.7568 19.4913 78.1781 19.174C77.6088 18.8567 77.1748 18.4133 76.8761 17.844L78.1641 17.032C78.3788 17.424 78.6588 17.7227 79.0041 17.928C79.3588 18.1333 79.7555 18.236 80.1941 18.236C80.8101 18.236 81.2955 18.0447 81.6501 17.662C82.0048 17.2887 82.1821 16.766 82.1821 16.094V15.324ZM82.2521 12.972C82.2521 12.692 82.2008 12.426 82.0981 12.174C81.9955 11.922 81.8555 11.7073 81.6781 11.53C81.5008 11.3433 81.2908 11.1987 81.0481 11.096C80.8055 10.984 80.5441 10.928 80.2641 10.928C79.9841 10.928 79.7228 10.984 79.4801 11.096C79.2375 11.1987 79.0275 11.3433 78.8501 11.53C78.6728 11.7073 78.5328 11.922 78.4301 12.174C78.3275 12.426 78.2761 12.692 78.2761 12.972C78.2761 13.2613 78.3275 13.532 78.4301 13.784C78.5328 14.0267 78.6728 14.2413 78.8501 14.428C79.0275 14.6147 79.2375 14.764 79.4801 14.876C79.7228 14.9787 79.9841 15.03 80.2641 15.03C80.5441 15.03 80.8055 14.9787 81.0481 14.876C81.2908 14.764 81.5008 14.6147 81.6781 14.428C81.8555 14.2413 81.9955 14.0267 82.0981 13.784C82.2008 13.532 82.2521 13.2613 82.2521 12.972ZM90.8911 15.324C90.6578 15.6507 90.3404 15.9167 89.9391 16.122C89.5471 16.3273 89.1131 16.43 88.6371 16.43C88.1704 16.43 87.7364 16.3413 87.3351 16.164C86.9338 15.9867 86.5838 15.744 86.2851 15.436C85.9958 15.128 85.7671 14.764 85.5991 14.344C85.4311 13.924 85.3471 13.4667 85.3471 12.972C85.3471 12.4773 85.4311 12.02 85.5991 11.6C85.7671 11.1707 85.9958 10.7973 86.2851 10.48C86.5838 10.1627 86.9338 9.91533 87.3351 9.738C87.7364 9.56067 88.1704 9.472 88.6371 9.472C89.1131 9.472 89.5471 9.57 89.9391 9.766C90.3404 9.962 90.6578 10.228 90.8911 10.564V9.64H92.4871V16.08C92.4871 16.612 92.4031 17.0973 92.2351 17.536C92.0764 17.9747 91.8431 18.348 91.5351 18.656C91.2271 18.9733 90.8491 19.216 90.4011 19.384C89.9624 19.5613 89.4631 19.65 88.9031 19.65C88.1378 19.65 87.4658 19.4913 86.8871 19.174C86.3178 18.8567 85.8838 18.4133 85.5851 17.844L86.8731 17.032C87.0878 17.424 87.3678 17.7227 87.7131 17.928C88.0678 18.1333 88.4644 18.236 88.9031 18.236C89.5191 18.236 90.0044 18.0447 90.3591 17.662C90.7138 17.2887 90.8911 16.766 90.8911 16.094V15.324ZM90.9611 12.972C90.9611 12.692 90.9098 12.426 90.8071 12.174C90.7044 11.922 90.5644 11.7073 90.3871 11.53C90.2098 11.3433 89.9998 11.1987 89.7571 11.096C89.5144 10.984 89.2531 10.928 88.9731 10.928C88.6931 10.928 88.4318 10.984 88.1891 11.096C87.9464 11.1987 87.7364 11.3433 87.5591 11.53C87.3818 11.7073 87.2418 11.922 87.1391 12.174C87.0364 12.426 86.9851 12.692 86.9851 12.972C86.9851 13.2613 87.0364 13.532 87.1391 13.784C87.2418 14.0267 87.3818 14.2413 87.5591 14.428C87.7364 14.6147 87.9464 14.764 88.1891 14.876C88.4318 14.9787 88.6931 15.03 88.9731 15.03C89.2531 15.03 89.5144 14.9787 89.7571 14.876C89.9998 14.764 90.2098 14.6147 90.3871 14.428C90.5644 14.2413 90.7044 14.0267 90.8071 13.784C90.9098 13.532 90.9611 13.2613 90.9611 12.972ZM96.1281 6.7V16.5H94.5041V6.7H96.1281ZM104.357 14.89C104.067 15.4313 103.661 15.8653 103.139 16.192C102.616 16.5093 101.991 16.668 101.263 16.668C100.74 16.668 100.259 16.5793 99.8208 16.402C99.3821 16.2247 99.0041 15.9773 98.6868 15.66C98.3788 15.3427 98.1361 14.9647 97.9588 14.526C97.7815 14.0873 97.6928 13.602 97.6928 13.07C97.6928 12.5567 97.7815 12.0807 97.9588 11.642C98.1361 11.2033 98.3788 10.8253 98.6868 10.508C99.0041 10.1813 99.3728 9.92933 99.7928 9.752C100.222 9.56533 100.684 9.472 101.179 9.472C101.683 9.472 102.14 9.56533 102.551 9.752C102.971 9.92933 103.33 10.1813 103.629 10.508C103.937 10.8253 104.175 11.2033 104.343 11.642C104.511 12.0807 104.595 12.5567 104.595 13.07C104.595 13.2007 104.59 13.364 104.581 13.56H99.3028C99.3215 13.812 99.3868 14.0453 99.4988 14.26C99.6108 14.4653 99.7555 14.6473 99.9328 14.806C100.11 14.9553 100.315 15.0767 100.549 15.17C100.782 15.254 101.025 15.296 101.277 15.296C101.725 15.296 102.079 15.198 102.341 15.002C102.602 14.806 102.831 14.5587 103.027 14.26L104.357 14.89ZM102.985 12.384C102.957 12.16 102.891 11.95 102.789 11.754C102.686 11.558 102.555 11.39 102.397 11.25C102.238 11.11 102.051 11.0027 101.837 10.928C101.622 10.844 101.393 10.802 101.151 10.802C100.908 10.802 100.679 10.8487 100.465 10.942C100.259 11.0353 100.073 11.1567 99.9048 11.306C99.7461 11.446 99.6155 11.614 99.5128 11.81C99.4101 11.9967 99.3448 12.188 99.3168 12.384H102.985ZM111.267 6.7V14.932H114.711V16.5H109.587V6.7H111.267ZM122.828 9.64V16.5H121.232V15.506C120.98 15.8607 120.649 16.1453 120.238 16.36C119.827 16.5653 119.384 16.668 118.908 16.668C118.432 16.668 117.989 16.5747 117.578 16.388C117.177 16.2013 116.827 15.9493 116.528 15.632C116.229 15.3053 115.991 14.9227 115.814 14.484C115.646 14.0453 115.562 13.574 115.562 13.07C115.562 12.566 115.646 12.0947 115.814 11.656C115.991 11.2173 116.229 10.8393 116.528 10.522C116.827 10.1953 117.177 9.93867 117.578 9.752C117.989 9.56533 118.432 9.472 118.908 9.472C119.384 9.472 119.827 9.57 120.238 9.766C120.649 9.95267 120.98 10.2233 121.232 10.578V9.64H122.828ZM117.186 13.07C117.186 13.3687 117.237 13.6487 117.34 13.91C117.452 14.162 117.597 14.386 117.774 14.582C117.961 14.7687 118.18 14.918 118.432 15.03C118.684 15.142 118.955 15.198 119.244 15.198C119.533 15.198 119.804 15.142 120.056 15.03C120.308 14.918 120.523 14.7687 120.7 14.582C120.887 14.386 121.031 14.162 121.134 13.91C121.246 13.6487 121.302 13.3687 121.302 13.07C121.302 12.7713 121.246 12.496 121.134 12.244C121.031 11.9827 120.887 11.7587 120.7 11.572C120.523 11.376 120.308 11.222 120.056 11.11C119.804 10.998 119.533 10.942 119.244 10.942C118.955 10.942 118.684 10.998 118.432 11.11C118.18 11.222 117.961 11.376 117.774 11.572C117.597 11.7587 117.452 11.9827 117.34 12.244C117.237 12.496 117.186 12.7713 117.186 13.07ZM124.856 16.5V6.7H126.466V10.62C126.718 10.2653 127.049 9.98533 127.46 9.78C127.87 9.57467 128.314 9.472 128.79 9.472C129.266 9.472 129.704 9.56533 130.106 9.752C130.516 9.92933 130.871 10.1813 131.17 10.508C131.468 10.8253 131.702 11.2033 131.87 11.642C132.047 12.0807 132.136 12.5567 132.136 13.07C132.136 13.574 132.047 14.0453 131.87 14.484C131.702 14.9227 131.468 15.3053 131.17 15.632C130.871 15.9493 130.516 16.2013 130.106 16.388C129.704 16.5747 129.266 16.668 128.79 16.668C128.314 16.668 127.87 16.5747 127.46 16.388C127.049 16.192 126.718 15.9167 126.466 15.562V16.5H124.856ZM130.512 13.07C130.512 12.7713 130.456 12.496 130.344 12.244C130.241 11.9827 130.096 11.7587 129.91 11.572C129.732 11.376 129.518 11.222 129.266 11.11C129.014 10.998 128.743 10.942 128.454 10.942C128.164 10.942 127.894 10.998 127.642 11.11C127.39 11.222 127.17 11.376 126.984 11.572C126.806 11.7587 126.662 11.9827 126.55 12.244C126.447 12.496 126.396 12.7713 126.396 13.07C126.396 13.3687 126.447 13.6487 126.55 13.91C126.662 14.162 126.806 14.386 126.984 14.582C127.17 14.7687 127.39 14.918 127.642 15.03C127.894 15.142 128.164 15.198 128.454 15.198C128.743 15.198 129.014 15.142 129.266 15.03C129.518 14.918 129.732 14.7687 129.91 14.582C130.096 14.386 130.241 14.162 130.344 13.91C130.456 13.6487 130.512 13.3687 130.512 13.07ZM139.917 14.89C139.628 15.4313 139.222 15.8653 138.699 16.192C138.177 16.5093 137.551 16.668 136.823 16.668C136.301 16.668 135.82 16.5793 135.381 16.402C134.943 16.2247 134.565 15.9773 134.247 15.66C133.939 15.3427 133.697 14.9647 133.519 14.526C133.342 14.0873 133.253 13.602 133.253 13.07C133.253 12.5567 133.342 12.0807 133.519 11.642C133.697 11.2033 133.939 10.8253 134.247 10.508C134.565 10.1813 134.933 9.92933 135.353 9.752C135.783 9.56533 136.245 9.472 136.739 9.472C137.243 9.472 137.701 9.56533 138.111 9.752C138.531 9.92933 138.891 10.1813 139.189 10.508C139.497 10.8253 139.735 11.2033 139.903 11.642C140.071 12.0807 140.155 12.5567 140.155 13.07C140.155 13.2007 140.151 13.364 140.141 13.56H134.863C134.882 13.812 134.947 14.0453 135.059 14.26C135.171 14.4653 135.316 14.6473 135.493 14.806C135.671 14.9553 135.876 15.0767 136.109 15.17C136.343 15.254 136.585 15.296 136.837 15.296C137.285 15.296 137.64 15.198 137.901 15.002C138.163 14.806 138.391 14.5587 138.587 14.26L139.917 14.89ZM138.545 12.384C138.517 12.16 138.452 11.95 138.349 11.754C138.247 11.558 138.116 11.39 137.957 11.25C137.799 11.11 137.612 11.0027 137.397 10.928C137.183 10.844 136.954 10.802 136.711 10.802C136.469 10.802 136.24 10.8487 136.025 10.942C135.82 11.0353 135.633 11.1567 135.465 11.306C135.307 11.446 135.176 11.614 135.073 11.81C134.971 11.9967 134.905 12.188 134.877 12.384H138.545ZM143.282 6.7V16.5H141.658V6.7H143.282Z" fill="#565656"/>
</svg>
